<svg width="32" height="32" viewBox="0 0 32 32" fill="none" xmlns="http://www.w3.org/2000/svg">
<rect width="32" height="32" rx="16" fill="#FFBC47"/>
<path d="M7.207 18L7.886 14.122L7.039 14.346L7.165 13.625L8.446 13.1H8.999L8.131 18H7.207ZM11.1041 18.084C10.7261 18.084 10.4018 18.0047 10.1311 17.846C9.86509 17.6873 9.65975 17.4657 9.51509 17.181C9.37509 16.8963 9.30509 16.5603 9.30509 16.173C9.30509 15.7297 9.37275 15.3167 9.50809 14.934C9.64342 14.5513 9.83009 14.2177 10.0681 13.933C10.3108 13.6437 10.5931 13.4197 10.9151 13.261C11.2371 13.0977 11.5848 13.016 11.9581 13.016C12.3408 13.016 12.6651 13.0953 12.9311 13.254C13.2018 13.4127 13.4071 13.6367 13.5471 13.926C13.6918 14.2107 13.7641 14.5443 13.7641 14.927C13.7641 15.3703 13.6964 15.7833 13.5611 16.166C13.4258 16.5487 13.2368 16.8847 12.9941 17.174C12.7561 17.4587 12.4761 17.6827 12.1541 17.846C11.8321 18.0047 11.4821 18.084 11.1041 18.084ZM11.2301 17.279C11.4494 17.279 11.6548 17.2207 11.8461 17.104C12.0421 16.9873 12.2148 16.8263 12.3641 16.621C12.5134 16.4157 12.6278 16.18 12.7071 15.914C12.7911 15.6433 12.8331 15.354 12.8331 15.046C12.8331 14.6633 12.7444 14.3647 12.5671 14.15C12.3898 13.9307 12.1471 13.821 11.8391 13.821C11.6198 13.821 11.4121 13.8793 11.2161 13.996C11.0248 14.1127 10.8544 14.2737 10.7051 14.479C10.5558 14.6843 10.4391 14.9223 10.3551 15.193C10.2711 15.459 10.2291 15.746 10.2291 16.054C10.2291 16.4367 10.3178 16.7377 10.4951 16.957C10.6771 17.1717 10.9221 17.279 11.2301 17.279ZM16.0943 18.084C15.7163 18.084 15.392 18.0047 15.1213 17.846C14.8553 17.6873 14.65 17.4657 14.5053 17.181C14.3653 16.8963 14.2953 16.5603 14.2953 16.173C14.2953 15.7297 14.363 15.3167 14.4983 14.934C14.6337 14.5513 14.8203 14.2177 15.0583 13.933C15.301 13.6437 15.5833 13.4197 15.9053 13.261C16.2273 13.0977 16.575 13.016 16.9483 13.016C17.331 13.016 17.6553 13.0953 17.9213 13.254C18.192 13.4127 18.3973 13.6367 18.5373 13.926C18.682 14.2107 18.7543 14.5443 18.7543 14.927C18.7543 15.3703 18.6867 15.7833 18.5513 16.166C18.416 16.5487 18.227 16.8847 17.9843 17.174C17.7463 17.4587 17.4663 17.6827 17.1443 17.846C16.8223 18.0047 16.4723 18.084 16.0943 18.084ZM16.2203 17.279C16.4397 17.279 16.645 17.2207 16.8363 17.104C17.0323 16.9873 17.205 16.8263 17.3543 16.621C17.5037 16.4157 17.618 16.18 17.6973 15.914C17.7813 15.6433 17.8233 15.354 17.8233 15.046C17.8233 14.6633 17.7347 14.3647 17.5573 14.15C17.38 13.9307 17.1373 13.821 16.8293 13.821C16.61 13.821 16.4023 13.8793 16.2063 13.996C16.015 14.1127 15.8447 14.2737 15.6953 14.479C15.546 14.6843 15.4293 14.9223 15.3453 15.193C15.2613 15.459 15.2193 15.746 15.2193 16.054C15.2193 16.4367 15.308 16.7377 15.4853 16.957C15.6673 17.1717 15.9123 17.279 16.2203 17.279ZM20.5526 15.508C20.2492 15.508 19.9972 15.417 19.7966 15.235C19.6006 15.0483 19.5026 14.801 19.5026 14.493C19.5026 14.2177 19.5656 13.9703 19.6916 13.751C19.8176 13.527 19.9879 13.3497 20.2026 13.219C20.4172 13.0837 20.6576 13.016 20.9236 13.016C21.2222 13.016 21.4696 13.107 21.6656 13.289C21.8616 13.471 21.9596 13.7183 21.9596 14.031C21.9596 14.3063 21.8966 14.556 21.7706 14.78C21.6492 15.004 21.4812 15.1813 21.2666 15.312C21.0566 15.4427 20.8186 15.508 20.5526 15.508ZM19.8106 18L23.4366 13.1H24.3116L20.6856 18H19.8106ZM20.6226 14.892C20.7952 14.892 20.9422 14.815 21.0636 14.661C21.1896 14.507 21.2526 14.318 21.2526 14.094C21.2526 13.94 21.2129 13.8233 21.1336 13.744C21.0589 13.6647 20.9609 13.625 20.8396 13.625C20.6669 13.625 20.5176 13.7043 20.3916 13.863C20.2702 14.017 20.2096 14.2037 20.2096 14.423C20.2096 14.577 20.2469 14.6937 20.3216 14.773C20.4009 14.8523 20.5012 14.892 20.6226 14.892ZM23.2336 18.084C22.9349 18.084 22.6852 17.993 22.4846 17.811C22.2839 17.629 22.1836 17.3817 22.1836 17.069C22.1836 16.7937 22.2466 16.5463 22.3726 16.327C22.4986 16.103 22.6689 15.9257 22.8836 15.795C23.0982 15.6643 23.3386 15.599 23.6046 15.599C23.9032 15.599 24.1506 15.69 24.3466 15.872C24.5426 16.0493 24.6406 16.2943 24.6406 16.607C24.6406 16.8823 24.5776 17.132 24.4516 17.356C24.3302 17.5753 24.1622 17.7527 23.9476 17.888C23.7376 18.0187 23.4996 18.084 23.2336 18.084ZM23.3036 17.468C23.4809 17.468 23.6302 17.391 23.7516 17.237C23.8729 17.0783 23.9336 16.8917 23.9336 16.677C23.9336 16.5183 23.8939 16.3993 23.8146 16.32C23.7399 16.2407 23.6442 16.201 23.5276 16.201C23.3502 16.201 23.2009 16.2803 23.0796 16.439C22.9582 16.593 22.8976 16.782 22.8976 17.006C22.8976 17.16 22.9349 17.2767 23.0096 17.356C23.0889 17.4307 23.1869 17.468 23.3036 17.468Z" fill="white"/>
</svg>
