<svg width="32" height="32" viewBox="0 0 32 32" fill="none" xmlns="http://www.w3.org/2000/svg">
<rect width="32" height="32" rx="16" fill="#FFBC47"/>
<path d="M16.5595 16L18.8845 13.675C18.9212 13.6383 18.9504 13.5946 18.9703 13.5466C18.9901 13.4987 19.0004 13.4472 19.0004 13.3952C19.0004 13.3433 18.9901 13.2918 18.9703 13.2439C18.9504 13.1959 18.9212 13.1522 18.8845 13.1155C18.8478 13.0788 18.8041 13.0496 18.7561 13.0297C18.7081 13.0099 18.6567 12.9996 18.6047 12.9996C18.5528 12.9996 18.5013 13.0099 18.4534 13.0297C18.4054 13.0496 18.3617 13.0788 18.325 13.1155L16 15.4405L13.675 13.1155C13.6383 13.0788 13.5946 13.0496 13.5466 13.0297C13.4987 13.0099 13.4472 12.9996 13.3952 12.9996C13.3433 12.9996 13.2918 13.0099 13.2439 13.0297C13.1959 13.0496 13.1522 13.0788 13.1155 13.1155C13.0788 13.1522 13.0496 13.1959 13.0297 13.2439C13.0099 13.2918 12.9996 13.3433 12.9996 13.3952C12.9996 13.4472 13.0099 13.4987 13.0297 13.5466C13.0496 13.5946 13.0788 13.6383 13.1155 13.675L15.4405 16L13.1155 18.325C13.0788 18.3617 13.0496 18.4054 13.0297 18.4534C13.0099 18.5013 12.9996 18.5528 12.9996 18.6047C12.9996 18.6567 13.0099 18.7081 13.0297 18.7561C13.0496 18.8041 13.0788 18.8478 13.1155 18.8845C13.1522 18.9212 13.1959 18.9504 13.2439 18.9703C13.2918 18.9901 13.3433 19.0004 13.3952 19.0004C13.4472 19.0004 13.4987 18.9901 13.5466 18.9703C13.5946 18.9504 13.6383 18.9212 13.675 18.8845L16 16.5595L18.325 18.8845C18.3617 18.9212 18.4054 18.9504 18.4534 18.9703C18.5013 18.9901 18.5528 19.0004 18.6047 19.0004C18.6567 19.0004 18.7081 18.9901 18.7561 18.9703C18.8041 18.9504 18.8478 18.9212 18.8845 18.8845C18.9212 18.8478 18.9504 18.8041 18.9703 18.7561C18.9901 18.7081 19.0004 18.6567 19.0004 18.6047C19.0004 18.5528 18.9901 18.5013 18.9703 18.4534C18.9504 18.4054 18.9212 18.3617 18.8845 18.325L16.5595 16ZM16 22C14.4087 22 12.8826 21.3679 11.7574 20.2426C10.6321 19.1174 10 17.5913 10 16C10 14.4087 10.6321 12.8826 11.7574 11.7574C12.8826 10.6321 14.4087 10 16 10C17.5913 10 19.1174 10.6321 20.2426 11.7574C21.3679 12.8826 22 14.4087 22 16C22 17.5913 21.3679 19.1174 20.2426 20.2426C19.1174 21.3679 17.5913 22 16 22Z" fill="white"/>
</svg>
