<svg width="14" height="18" viewBox="0 0 14 18" fill="none" xmlns="http://www.w3.org/2000/svg">
<path fill-rule="evenodd" clip-rule="evenodd" d="M1.16536 15.6667H12.832C13.053 15.6667 13.265 15.7545 13.4213 15.9108C13.5776 16.0671 13.6654 16.2791 13.6654 16.5001C13.6654 16.7211 13.5776 16.9331 13.4213 17.0893C13.265 17.2456 13.053 17.3334 12.832 17.3334H1.16536C0.944351 17.3334 0.732389 17.2456 0.576109 17.0893C0.419829 16.9331 0.332031 16.7211 0.332031 16.5001C0.332031 16.2791 0.419829 16.0671 0.576109 15.9108C0.732389 15.7545 0.944351 15.6667 1.16536 15.6667ZM0.332031 11.5001L8.66536 3.16675L11.1654 5.66675L2.83203 14.0001H0.332031V11.5001ZM9.4987 2.33341L11.1654 0.666748L13.6654 3.16675L11.9979 4.83425L9.4987 2.33341Z" fill="#2E3742"/>
</svg>
