<svg width="32" height="32" viewBox="0 0 32 32" fill="none" xmlns="http://www.w3.org/2000/svg">
<rect width="32" height="32" rx="16" fill="#FFBC47"/>
<path d="M12.4668 15.9998C12.4693 16.7386 12.5618 17.4744 12.7424 18.1909H15.6224V13.9775H12.7024C12.5487 14.6407 12.4697 15.319 12.4668 15.9998Z" fill="white"/>
<path d="M16.3789 13.9775V18.1909H19.2589C19.4469 17.4753 19.5469 16.7395 19.5567 15.9998C19.5552 15.3192 19.4777 14.6409 19.3256 13.9775H16.3789Z" fill="white"/>
<path d="M15.9998 8.88867C14.5933 8.88867 13.2185 9.30573 12.0491 10.0871C10.8796 10.8685 9.9682 11.9791 9.42998 13.2785C8.89175 14.5779 8.75093 16.0077 9.02531 17.3871C9.2997 18.7665 9.97696 20.0336 10.9715 21.0281C11.966 22.0226 13.2331 22.6999 14.6125 22.9743C15.9919 23.2486 17.4217 23.1078 18.7211 22.5696C20.0205 22.0314 21.1311 21.1199 21.9125 19.9505C22.6938 18.7811 23.1109 17.4062 23.1109 15.9998C23.1109 14.1138 22.3617 12.3051 21.0281 10.9715C19.6945 9.63788 17.8858 8.88867 15.9998 8.88867ZM21.4309 18.982H19.822C19.5178 19.9344 19.068 20.8339 18.4887 21.6487C18.0611 21.835 17.6138 21.9722 17.1553 22.0576C17.9764 21.1653 18.6084 20.1161 19.0131 18.9731H16.382V22.1509H15.6309V18.982H12.9865C13.3906 20.1266 14.0226 21.1774 14.8442 22.0709C14.3952 21.9864 13.9569 21.8523 13.5376 21.6709C12.9562 20.8493 12.5063 19.9421 12.2042 18.982H10.5687C10.4267 18.723 10.3034 18.4542 10.1998 18.1776H11.9776C11.811 17.4635 11.7245 16.733 11.7198 15.9998C11.72 15.3201 11.7915 14.6423 11.9331 13.9776H10.1153C10.2088 13.7018 10.3217 13.433 10.4531 13.1731H12.1465C12.4642 12.1149 12.9569 11.1174 13.6042 10.222C14.0147 10.0519 14.4424 9.92675 14.8798 9.84867C13.9956 10.7976 13.3284 11.9274 12.9242 13.1598H15.6309V9.77756H16.382V13.1731H19.0887C18.6853 11.9427 18.0196 10.8145 17.1376 9.86645C17.5743 9.93889 18.0019 10.0581 18.4131 10.222C19.0567 11.1109 19.5478 12.1007 19.8665 13.1509H21.542C21.6734 13.4107 21.7863 13.6796 21.8798 13.9553H20.0753C20.22 14.6272 20.293 15.3125 20.2931 15.9998C20.2908 16.7373 20.2059 17.4723 20.0398 18.1909H21.8176C21.7076 18.4634 21.5784 18.7278 21.4309 18.982Z" fill="white"/>
</svg>
