<svg width="448" height="410" viewBox="0 0 448 410" fill="none" xmlns="http://www.w3.org/2000/svg">
<circle cx="205.5" cy="210.5" r="143" stroke="#CDCDCD" stroke-dasharray="5 5"/>
<path d="M205.5 323.5C204.673 323.5 203.849 323.491 203.026 323.473L203.016 323.973C201.358 323.938 199.709 323.867 198.07 323.761L198.102 323.262C196.455 323.155 194.819 323.014 193.192 322.837L193.138 323.335C191.491 323.156 189.855 322.943 188.23 322.695L188.305 322.2C186.674 321.951 185.054 321.667 183.446 321.349L183.349 321.84C181.724 321.518 180.111 321.162 178.512 320.772L178.63 320.286C177.029 319.895 175.44 319.471 173.867 319.013L173.727 319.493C172.138 319.03 170.563 318.534 169.003 318.005L169.164 317.531C167.604 317.002 166.06 316.439 164.531 315.844L164.35 316.31C162.809 315.711 161.284 315.078 159.776 314.414L159.977 313.956C158.471 313.292 156.982 312.596 155.511 311.87L155.289 312.318C153.807 311.586 152.343 310.822 150.899 310.028L151.14 309.59C149.698 308.797 148.275 307.974 146.872 307.121L146.613 307.548C145.2 306.689 143.808 305.8 142.438 304.883L142.716 304.467C141.349 303.552 140.003 302.608 138.679 301.635L138.383 302.038C137.052 301.061 135.742 300.054 134.456 299.021L134.769 298.631C133.487 297.601 132.229 296.543 130.994 295.46L130.664 295.835C129.423 294.746 128.206 293.63 127.013 292.489L127.359 292.127C126.172 290.991 125.009 289.828 123.873 288.641L123.511 288.987C122.37 287.794 121.254 286.577 120.165 285.336L120.54 285.007C119.457 283.771 118.399 282.513 117.369 281.231L116.979 281.544C115.946 280.258 114.939 278.949 113.962 277.617L114.365 277.321C113.392 275.997 112.448 274.651 111.533 273.284L111.117 273.562C110.2 272.192 109.311 270.8 108.452 269.388L108.879 269.128C108.026 267.725 107.203 266.302 106.41 264.86L105.972 265.101C105.178 263.657 104.414 262.193 103.682 260.711L104.13 260.489C103.404 259.018 102.708 257.529 102.044 256.023L101.586 256.224C100.922 254.716 100.289 253.191 99.6896 251.65L100.156 251.469C99.5607 249.94 98.9982 248.396 98.4688 246.836L97.9954 246.997C97.4661 245.437 96.9698 243.862 96.5073 242.273L96.9874 242.133C96.5293 240.56 96.1046 238.971 95.7139 237.37L95.2282 237.488C94.8381 235.889 94.4819 234.276 94.1604 232.651L94.6509 232.554C94.3328 230.946 94.0488 229.326 93.7998 227.695L93.3055 227.77C93.0574 226.145 92.8438 224.509 92.6654 222.862L93.1625 222.808C92.9863 221.181 92.8447 219.545 92.7383 217.898L92.2393 217.93C92.1334 216.291 92.0622 214.642 92.0267 212.984L92.5265 212.974C92.5089 212.151 92.5 211.327 92.5 210.5C92.5 209.673 92.5089 208.849 92.5265 208.026L92.0267 208.016C92.0623 206.358 92.1334 204.709 92.2393 203.07L92.7383 203.102C92.8447 201.455 92.9864 199.819 93.1625 198.192L92.6654 198.138C92.8438 196.491 93.0574 194.855 93.3055 193.23L93.7998 193.305C94.0488 191.674 94.3328 190.054 94.6509 188.446L94.1604 188.349C94.4819 186.724 94.8381 185.111 95.2282 183.512L95.714 183.63C96.1046 182.029 96.5293 180.44 96.9874 178.867L96.5073 178.727C96.9698 177.138 97.4661 175.563 97.9954 174.003L98.4688 174.164C98.9982 172.604 99.5607 171.06 100.155 169.531L99.6895 169.35C100.289 167.809 100.922 166.284 101.586 164.776L102.044 164.977C102.708 163.471 103.404 161.982 104.13 160.511L103.682 160.289C104.414 158.807 105.178 157.343 105.972 155.899L106.41 156.14C107.203 154.698 108.026 153.275 108.879 151.872L108.452 151.613C109.311 150.2 110.2 148.808 111.117 147.438L111.533 147.716C112.448 146.349 113.392 145.003 114.365 143.679L113.962 143.383C114.939 142.052 115.946 140.742 116.979 139.456L117.369 139.769C118.399 138.487 119.457 137.229 120.54 135.994L120.165 135.664C121.254 134.423 122.37 133.206 123.511 132.013L123.873 132.359C125.009 131.172 126.172 130.009 127.359 128.873L127.013 128.511C128.206 127.37 129.423 126.254 130.664 125.165L130.994 125.54C132.229 124.457 133.487 123.399 134.769 122.369L134.456 121.979C135.742 120.946 137.051 119.939 138.383 118.962L138.679 119.365C140.003 118.392 141.349 117.448 142.716 116.533L142.438 116.117C143.808 115.2 145.2 114.311 146.612 113.452L146.872 113.879C148.275 113.026 149.698 112.203 151.14 111.41L150.899 110.972C152.343 110.178 153.807 109.414 155.289 108.682L155.511 109.13C156.982 108.404 158.471 107.708 159.977 107.044L159.776 106.586C161.284 105.922 162.809 105.289 164.35 104.69L164.531 105.156C166.06 104.561 167.604 103.998 169.164 103.469L169.003 102.995C170.563 102.466 172.138 101.97 173.727 101.507L173.867 101.987C175.44 101.529 177.029 101.105 178.63 100.714L178.512 100.228C180.111 99.8381 181.724 99.4819 183.349 99.1604L183.446 99.6509C185.054 99.3328 186.674 99.0488 188.305 98.7998L188.23 98.3055C189.855 98.0574 191.491 97.8438 193.138 97.6654L193.192 98.1625C194.819 97.9863 196.455 97.8447 198.102 97.7383L198.07 97.2393C199.709 97.1334 201.358 97.0622 203.016 97.0267L203.026 97.5265C203.849 97.5089 204.673 97.5 205.5 97.5C206.327 97.5 207.151 97.5089 207.974 97.5265L207.984 97.0267C209.642 97.0623 211.291 97.1334 212.93 97.2393L212.898 97.7383C214.545 97.8447 216.181 97.9864 217.808 98.1625L217.862 97.6654C219.509 97.8438 221.145 98.0574 222.77 98.3055L222.695 98.7998C224.326 99.0488 225.946 99.3328 227.554 99.6509L227.651 99.1604C229.276 99.4819 230.889 99.8381 232.488 100.228L232.37 100.714C233.971 101.105 235.56 101.529 237.133 101.987L237.273 101.507C238.862 101.97 240.437 102.466 241.997 102.995L241.836 103.469C243.396 103.998 244.94 104.561 246.469 105.155L246.65 104.69C248.191 105.289 249.716 105.922 251.224 106.586L251.023 107.044C252.529 107.708 254.018 108.404 255.489 109.13L255.711 108.682C257.193 109.414 258.657 110.178 260.101 110.972L259.86 111.41C261.302 112.203 262.725 113.026 264.128 113.879L264.387 113.452C265.8 114.311 267.192 115.2 268.562 116.117L268.284 116.533C269.651 117.448 270.997 118.392 272.321 119.365L272.617 118.962C273.948 119.939 275.258 120.946 276.544 121.979L276.231 122.369C277.513 123.399 278.771 124.457 280.006 125.54L280.336 125.165C281.577 126.254 282.794 127.37 283.987 128.511L283.641 128.873C284.828 130.009 285.991 131.172 287.127 132.359L287.489 132.013C288.63 133.206 289.746 134.423 290.835 135.664L290.46 135.994C291.543 137.229 292.601 138.487 293.631 139.769L294.021 139.456C295.054 140.742 296.061 142.051 297.038 143.383L296.635 143.679C297.608 145.003 298.552 146.349 299.467 147.716L299.883 147.438C300.8 148.808 301.689 150.2 302.548 151.612L302.121 151.872C302.974 153.275 303.797 154.698 304.59 156.14L305.028 155.899C305.822 157.343 306.586 158.807 307.318 160.289L306.87 160.511C307.596 161.982 308.292 163.471 308.956 164.977L309.414 164.776C310.078 166.284 310.711 167.809 311.31 169.35L310.844 169.531C311.439 171.06 312.002 172.604 312.531 174.164L313.005 174.003C313.534 175.563 314.03 177.138 314.493 178.727L314.013 178.867C314.471 180.44 314.895 182.029 315.286 183.63L315.772 183.512C316.162 185.111 316.518 186.724 316.84 188.349L316.349 188.446C316.667 190.054 316.951 191.674 317.2 193.305L317.695 193.23C317.943 194.855 318.156 196.491 318.335 198.138L317.837 198.192C318.014 199.819 318.155 201.455 318.262 203.102L318.761 203.07C318.867 204.709 318.938 206.358 318.973 208.016L318.473 208.026C318.491 208.849 318.5 209.673 318.5 210.5C318.5 211.327 318.491 212.151 318.473 212.974L318.973 212.984C318.938 214.642 318.867 216.291 318.761 217.93L318.262 217.898C318.155 219.545 318.014 221.181 317.837 222.808L318.335 222.862C318.156 224.509 317.943 226.145 317.695 227.77L317.2 227.695C316.951 229.326 316.667 230.946 316.349 232.554L316.84 232.651C316.518 234.276 316.162 235.889 315.772 237.488L315.286 237.37C314.895 238.971 314.471 240.56 314.013 242.133L314.493 242.273C314.03 243.862 313.534 245.437 313.005 246.997L312.531 246.836C312.002 248.396 311.439 249.94 310.844 251.469L311.31 251.65C310.711 253.191 310.078 254.716 309.414 256.224L308.956 256.023C308.292 257.529 307.596 259.018 306.87 260.489L307.318 260.711C306.586 262.193 305.822 263.657 305.028 265.101L304.59 264.86C303.797 266.302 302.974 267.725 302.121 269.128L302.548 269.387C301.689 270.8 300.8 272.192 299.883 273.562L299.467 273.284C298.552 274.651 297.608 275.997 296.635 277.321L297.038 277.617C296.061 278.948 295.054 280.258 294.021 281.544L293.631 281.231C292.601 282.513 291.543 283.771 290.46 285.006L290.835 285.336C289.746 286.577 288.63 287.794 287.489 288.987L287.127 288.641C285.991 289.828 284.828 290.991 283.641 292.127L283.987 292.489C282.794 293.63 281.577 294.746 280.336 295.835L280.007 295.46C278.771 296.543 277.513 297.601 276.231 298.631L276.544 299.021C275.258 300.054 273.949 301.061 272.617 302.038L272.321 301.635C270.997 302.608 269.651 303.552 268.284 304.467L268.562 304.883C267.192 305.8 265.8 306.689 264.387 307.548L264.128 307.121C262.725 307.974 261.302 308.797 259.86 309.59L260.101 310.028C258.657 310.822 257.193 311.586 255.711 312.318L255.489 311.87C254.018 312.596 252.529 313.292 251.023 313.956L251.224 314.414C249.716 315.078 248.191 315.711 246.65 316.31L246.469 315.844C244.94 316.439 243.396 317.002 241.836 317.531L241.997 318.005C240.437 318.534 238.862 319.03 237.273 319.493L237.133 319.013C235.56 319.471 233.971 319.895 232.37 320.286L232.488 320.772C230.889 321.162 229.276 321.518 227.651 321.84L227.554 321.349C225.946 321.667 224.326 321.951 222.695 322.2L222.77 322.695C221.145 322.943 219.509 323.156 217.862 323.335L217.808 322.837C216.181 323.014 214.545 323.155 212.898 323.262L212.93 323.761C211.291 323.867 209.642 323.938 207.984 323.973L207.974 323.473C207.151 323.491 206.327 323.5 205.5 323.5Z" stroke="#CDCDCD" stroke-dasharray="5 5"/>
<g filter="url(#filter0_d_1_67)">
<rect x="115" y="113" width="30" height="30" rx="15" fill="url(#paint0_linear_1_67)" shape-rendering="crispEdges"/>
<path d="M129.588 133.044V132.12C128.812 132.032 128.18 131.76 127.692 131.304C127.204 130.848 126.952 130.236 126.936 129.468H128.556C128.572 129.788 128.668 130.068 128.844 130.308C129.028 130.548 129.276 130.712 129.588 130.8V128.268C129.516 128.244 129.44 128.22 129.36 128.196C129.288 128.172 129.212 128.148 129.132 128.124C128.484 127.9 127.988 127.612 127.644 127.26C127.308 126.908 127.14 126.44 127.14 125.856C127.132 125.168 127.356 124.616 127.812 124.2C128.268 123.776 128.86 123.532 129.588 123.468V122.496H130.392V123.48C131.112 123.552 131.692 123.804 132.132 124.236C132.58 124.66 132.816 125.208 132.84 125.88H131.196C131.188 125.648 131.112 125.436 130.968 125.244C130.832 125.044 130.64 124.904 130.392 124.824V127.056C130.456 127.08 130.52 127.104 130.584 127.128C130.648 127.144 130.712 127.164 130.776 127.188C131.192 127.332 131.572 127.5 131.916 127.692C132.26 127.884 132.536 128.14 132.744 128.46C132.952 128.772 133.056 129.176 133.056 129.672C133.056 130.088 132.952 130.476 132.744 130.836C132.544 131.196 132.244 131.496 131.844 131.736C131.452 131.968 130.968 132.1 130.392 132.132V133.044H129.588ZM128.748 125.748C128.748 126.004 128.824 126.212 128.976 126.372C129.128 126.524 129.332 126.656 129.588 126.768V124.776C129.34 124.824 129.136 124.932 128.976 125.1C128.824 125.268 128.748 125.484 128.748 125.748ZM131.424 129.78C131.424 129.46 131.328 129.208 131.136 129.024C130.944 128.84 130.696 128.684 130.392 128.556V130.836C130.712 130.788 130.964 130.672 131.148 130.488C131.332 130.304 131.424 130.068 131.424 129.78Z" fill="white"/>
</g>
<g filter="url(#filter1_d_1_67)">
<rect x="325.647" y="264" width="30" height="30" rx="15" transform="rotate(40.9127 325.647 264)" fill="url(#paint1_linear_1_67)" shape-rendering="crispEdges"/>
<path d="M323.545 288.701L324.15 288.003C323.621 287.428 323.321 286.809 323.251 286.144C323.181 285.48 323.391 284.853 323.882 284.262L325.107 285.323C324.909 285.575 324.798 285.85 324.774 286.146C324.756 286.448 324.836 286.734 325.014 287.005L326.672 285.092C326.634 285.027 326.592 284.959 326.547 284.888C326.509 284.823 326.467 284.755 326.422 284.684C326.079 284.091 325.893 283.548 325.863 283.057C325.84 282.571 326.02 282.107 326.402 281.666C326.847 281.141 327.377 280.87 327.994 280.855C328.617 280.833 329.224 281.036 329.816 281.464L330.453 280.73L331.06 281.256L330.416 282C330.913 282.526 331.186 283.096 331.235 283.711C331.296 284.325 331.116 284.893 330.694 285.417L329.451 284.34C329.597 284.16 329.679 283.95 329.696 283.71C329.724 283.47 329.67 283.239 329.535 283.016L328.074 284.702C328.106 284.763 328.139 284.823 328.172 284.883C328.21 284.937 328.245 284.994 328.277 285.054C328.498 285.435 328.675 285.811 328.809 286.181C328.943 286.552 328.984 286.926 328.932 287.304C328.884 287.676 328.699 288.049 328.374 288.424C328.101 288.738 327.769 288.964 327.376 289.099C326.989 289.24 326.565 289.271 326.106 289.19C325.658 289.109 325.206 288.891 324.749 288.538L324.152 289.228L323.545 288.701ZM327.688 282.637C327.52 282.831 327.441 283.038 327.452 283.258C327.467 283.473 327.535 283.706 327.655 283.958L328.959 282.453C328.74 282.327 328.516 282.275 328.285 282.297C328.06 282.324 327.861 282.438 327.688 282.637ZM327.07 287.437C327.279 287.195 327.372 286.942 327.347 286.677C327.322 286.412 327.237 286.132 327.091 285.836L325.598 287.559C325.871 287.732 326.138 287.81 326.397 287.791C326.657 287.773 326.881 287.655 327.07 287.437Z" fill="white"/>
</g>
<g filter="url(#filter2_d_1_67)">
<path d="M20 192H246C254.837 192 262 199.163 262 208V380H36C27.1634 380 20 372.837 20 364V192Z" fill="white"/>
<path d="M36.782 217V210H39.042C39.5887 210 40.0353 210.09 40.382 210.27C40.7287 210.45 40.9853 210.697 41.152 211.01C41.3187 211.323 41.402 211.67 41.402 212.05C41.402 212.49 41.282 212.887 41.042 213.24C40.8087 213.593 40.442 213.843 39.942 213.99L41.472 217H40.482L39.062 214.11H39.002H37.622V217H36.782ZM37.622 213.45H38.982C39.522 213.45 39.9153 213.32 40.162 213.06C40.4087 212.8 40.532 212.467 40.532 212.06C40.532 211.647 40.4087 211.32 40.162 211.08C39.922 210.833 39.5253 210.71 38.972 210.71H37.622V213.45ZM44.587 217.12C44.1137 217.12 43.6937 217.013 43.327 216.8C42.9603 216.58 42.6703 216.277 42.457 215.89C42.2503 215.503 42.147 215.047 42.147 214.52C42.147 214 42.2503 213.547 42.457 213.16C42.6637 212.767 42.9503 212.463 43.317 212.25C43.6903 212.03 44.1203 211.92 44.607 211.92C45.087 211.92 45.5003 212.03 45.847 212.25C46.2003 212.463 46.4703 212.747 46.657 213.1C46.8437 213.453 46.937 213.833 46.937 214.24C46.937 214.313 46.9337 214.387 46.927 214.46C46.927 214.533 46.927 214.617 46.927 214.71H42.977C42.997 215.09 43.0837 215.407 43.237 215.66C43.397 215.907 43.5937 216.093 43.827 216.22C44.067 216.347 44.3203 216.41 44.587 216.41C44.9337 216.41 45.2237 216.33 45.457 216.17C45.6903 216.01 45.8603 215.793 45.967 215.52H46.797C46.6637 215.98 46.407 216.363 46.027 216.67C45.6537 216.97 45.1737 217.12 44.587 217.12ZM44.587 212.63C44.187 212.63 43.8303 212.753 43.517 213C43.2103 213.24 43.0337 213.593 42.987 214.06H46.107C46.087 213.613 45.9337 213.263 45.647 213.01C45.3603 212.757 45.007 212.63 44.587 212.63ZM49.285 217L47.405 212.04H48.285L49.775 216.19L51.275 212.04H52.135L50.255 217H49.285ZM55.046 217.12C54.5726 217.12 54.1526 217.013 53.786 216.8C53.4193 216.58 53.1293 216.277 52.916 215.89C52.7093 215.503 52.606 215.047 52.606 214.52C52.606 214 52.7093 213.547 52.916 213.16C53.1226 212.767 53.4093 212.463 53.776 212.25C54.1493 212.03 54.5793 211.92 55.066 211.92C55.546 211.92 55.9593 212.03 56.306 212.25C56.6593 212.463 56.9293 212.747 57.116 213.1C57.3026 213.453 57.396 213.833 57.396 214.24C57.396 214.313 57.3926 214.387 57.386 214.46C57.386 214.533 57.386 214.617 57.386 214.71H53.436C53.456 215.09 53.5426 215.407 53.696 215.66C53.856 215.907 54.0526 216.093 54.286 216.22C54.526 216.347 54.7793 216.41 55.046 216.41C55.3926 216.41 55.6826 216.33 55.916 216.17C56.1493 216.01 56.3193 215.793 56.426 215.52H57.256C57.1226 215.98 56.866 216.363 56.486 216.67C56.1126 216.97 55.6326 217.12 55.046 217.12ZM55.046 212.63C54.646 212.63 54.2893 212.753 53.976 213C53.6693 213.24 53.4926 213.593 53.446 214.06H56.566C56.546 213.613 56.3926 213.263 56.106 213.01C55.8193 212.757 55.466 212.63 55.046 212.63ZM58.5093 217V212.04H59.2693L59.3193 212.93C59.4793 212.617 59.7093 212.37 60.0093 212.19C60.3093 212.01 60.6493 211.92 61.0293 211.92C61.616 211.92 62.0827 212.1 62.4293 212.46C62.7827 212.813 62.9593 213.36 62.9593 214.1V217H62.1193V214.19C62.1193 213.157 61.6927 212.64 60.8393 212.64C60.4127 212.64 60.056 212.797 59.7693 213.11C59.4893 213.417 59.3493 213.857 59.3493 214.43V217H58.5093ZM66.042 217.12C65.4553 217.12 64.9887 216.943 64.642 216.59C64.2953 216.23 64.122 215.68 64.122 214.94V212.04H64.962V214.85C64.962 215.883 65.3853 216.4 66.232 216.4C66.6653 216.4 67.022 216.247 67.302 215.94C67.5887 215.627 67.732 215.183 67.732 214.61V212.04H68.572V217H67.812L67.752 216.11C67.5987 216.423 67.3687 216.67 67.062 216.85C66.762 217.03 66.422 217.12 66.042 217.12ZM72.1846 217.12C71.7113 217.12 71.2913 217.013 70.9246 216.8C70.558 216.58 70.268 216.277 70.0546 215.89C69.848 215.503 69.7446 215.047 69.7446 214.52C69.7446 214 69.848 213.547 70.0546 213.16C70.2613 212.767 70.548 212.463 70.9146 212.25C71.288 212.03 71.718 211.92 72.2046 211.92C72.6846 211.92 73.098 212.03 73.4446 212.25C73.798 212.463 74.068 212.747 74.2546 213.1C74.4413 213.453 74.5346 213.833 74.5346 214.24C74.5346 214.313 74.5313 214.387 74.5246 214.46C74.5246 214.533 74.5246 214.617 74.5246 214.71H70.5746C70.5946 215.09 70.6813 215.407 70.8346 215.66C70.9946 215.907 71.1913 216.093 71.4246 216.22C71.6646 216.347 71.918 216.41 72.1846 216.41C72.5313 216.41 72.8213 216.33 73.0546 216.17C73.288 216.01 73.458 215.793 73.5646 215.52H74.3946C74.2613 215.98 74.0046 216.363 73.6246 216.67C73.2513 216.97 72.7713 217.12 72.1846 217.12ZM72.1846 212.63C71.7846 212.63 71.428 212.753 71.1146 213C70.808 213.24 70.6313 213.593 70.5846 214.06H73.7046C73.6846 213.613 73.5313 213.263 73.2446 213.01C72.958 212.757 72.6046 212.63 72.1846 212.63Z" fill="black"/>
<g clip-path="url(#clip0_1_67)">
<path d="M36 251.25L39.4556 256.976C42.9315 262.488 49.9438 274.262 56.8146 282.664C63.7056 291.387 70.5563 296.738 77.6292 285.5C84.5 274.262 91.3708 245.363 98.4437 245.524C105.294 245.363 112.185 274.262 119.056 282.664C126.069 291.387 133 279.613 139.871 285.5C146.863 291.387 153.815 313.863 160.685 305.461C167.637 296.738 174.629 257.137 181.5 259.812C188.431 262.488 195.444 283.374 202.315 306.011C209.206 328.862 216.056 328.862 223.129 314.574C230.96 300.897 234.784 295.547 243.205 288.014C252.089 281.101 257.685 291.387 264.556 279.774C271.569 268.375 278.5 234.125 285.371 228.399C292.363 222.887 299.315 245.363 306.185 248.414C313.137 251.25 320.129 234.125 323.565 225.562L327 217V354H323.544C320.069 354 313.056 354 306.185 354C299.294 354 292.444 354 285.371 354C278.5 354 271.629 354 264.556 354C257.706 354 250.815 354 243.944 354C236.931 354 230 354 223.129 354C216.137 354 209.185 354 202.315 354C195.363 354 188.371 354 181.5 354C174.569 354 167.556 354 160.685 354C153.794 354 146.944 354 139.871 354C133 354 126.129 354 119.056 354C112.206 354 105.315 354 98.4437 354C91.4315 354 84.5 354 77.6292 354C70.6371 354 63.6854 354 56.8146 354C49.8629 354 42.8708 354 39.4354 354H36V251.25Z" fill="url(#paint2_linear_1_67)"/>
<line x1="58.5" y1="272.5" x2="58.5" y2="345.5" stroke="#FFBC47" stroke-linecap="round" stroke-dasharray="4 4"/>
<line x1="214.5" y1="306.5" x2="214.5" y2="345.5" stroke="#FE5C5C" stroke-linecap="round" stroke-dasharray="4 4"/>
<path d="M36 251.663L39.4522 257.325C42.9246 262.775 49.9299 274.417 56.7939 282.725C63.6782 291.35 70.522 296.642 77.5879 285.529C84.4519 274.417 91.3159 245.842 98.3818 246.001C105.226 245.842 112.11 274.417 118.974 282.725C125.979 291.35 132.904 279.708 139.768 285.529C146.753 291.35 153.698 313.575 160.562 305.267C167.507 296.642 174.492 257.483 181.356 260.129C188.28 262.775 195.286 283.427 202.15 305.811C209.034 328.406 215.878 328.406 222.944 314.277C230.767 300.753 234.587 295.463 243 288.015" stroke="url(#paint3_linear_1_67)" stroke-width="2" stroke-linecap="round"/>
<circle opacity="0.36" cx="58.5" cy="286.5" r="4.5" fill="#232E4F" stroke="url(#paint4_linear_1_67)" stroke-width="2"/>
<circle cx="58.5" cy="286.5" r="2.5" fill="white" stroke="url(#paint5_linear_1_67)" stroke-width="2"/>
<circle opacity="0.36" cx="214.5" cy="322.5" r="4.5" fill="#232E4F" stroke="url(#paint6_linear_1_67)" stroke-width="2"/>
<circle cx="214.5" cy="322.5" r="2.5" fill="white" stroke="url(#paint7_linear_1_67)" stroke-width="2"/>
<rect x="46" y="252" width="25" height="12" rx="2" fill="#FFBC47"/>
<path d="M50.6565 260V259.544C50.9285 259.328 51.1885 259.11 51.4365 258.89C51.6845 258.67 51.9045 258.454 52.0965 258.242C52.2925 258.026 52.4465 257.816 52.5585 257.612C52.6705 257.404 52.7265 257.204 52.7265 257.012C52.7265 256.884 52.7045 256.764 52.6605 256.652C52.6165 256.536 52.5445 256.444 52.4445 256.376C52.3445 256.304 52.2105 256.268 52.0425 256.268C51.7905 256.268 51.6005 256.348 51.4725 256.508C51.3485 256.668 51.2885 256.86 51.2925 257.084H50.6745C50.6785 256.788 50.7405 256.54 50.8605 256.34C50.9845 256.14 51.1485 255.988 51.3525 255.884C51.5605 255.78 51.7945 255.728 52.0545 255.728C52.4505 255.728 52.7665 255.84 53.0025 256.064C53.2425 256.284 53.3625 256.592 53.3625 256.988C53.3625 257.224 53.3045 257.458 53.1885 257.69C53.0765 257.922 52.9285 258.146 52.7445 258.362C52.5645 258.574 52.3705 258.774 52.1625 258.962C51.9545 259.15 51.7565 259.32 51.5685 259.472H53.4885V260H50.6565ZM55.8072 260.072C55.4272 260.072 55.0992 259.982 54.8232 259.802C54.5512 259.618 54.3412 259.364 54.1932 259.04C54.0492 258.712 53.9772 258.332 53.9772 257.9C53.9772 257.468 54.0492 257.09 54.1932 256.766C54.3412 256.438 54.5512 256.184 54.8232 256.004C55.0992 255.82 55.4272 255.728 55.8072 255.728C56.1872 255.728 56.5132 255.82 56.7852 256.004C57.0572 256.184 57.2652 256.438 57.4092 256.766C57.5572 257.09 57.6312 257.468 57.6312 257.9C57.6312 258.332 57.5572 258.712 57.4092 259.04C57.2652 259.364 57.0572 259.618 56.7852 259.802C56.5132 259.982 56.1872 260.072 55.8072 260.072ZM55.8072 259.502C56.0352 259.502 56.2372 259.438 56.4132 259.31C56.5932 259.182 56.7332 258.998 56.8332 258.758C56.9332 258.518 56.9832 258.232 56.9832 257.9C56.9832 257.568 56.9332 257.282 56.8332 257.042C56.7332 256.802 56.5932 256.618 56.4132 256.49C56.2372 256.362 56.0352 256.298 55.8072 256.298C55.5752 256.298 55.3712 256.362 55.1952 256.49C55.0192 256.618 54.8812 256.802 54.7812 257.042C54.6812 257.282 54.6312 257.568 54.6312 257.9C54.6312 258.232 54.6812 258.518 54.7812 258.758C54.8812 258.998 55.0192 259.182 55.1952 259.31C55.3712 259.438 55.5752 259.502 55.8072 259.502ZM58.3278 260.036C58.2078 260.036 58.1078 259.998 58.0278 259.922C57.9518 259.842 57.9138 259.748 57.9138 259.64C57.9138 259.528 57.9518 259.434 58.0278 259.358C58.1078 259.278 58.2078 259.238 58.3278 259.238C58.4478 259.238 58.5458 259.278 58.6218 259.358C58.6978 259.434 58.7358 259.528 58.7358 259.64C58.7358 259.748 58.6978 259.842 58.6218 259.922C58.5458 259.998 58.4478 260.036 58.3278 260.036ZM60.8404 260.072C60.4604 260.072 60.1324 259.982 59.8564 259.802C59.5844 259.618 59.3744 259.364 59.2264 259.04C59.0824 258.712 59.0104 258.332 59.0104 257.9C59.0104 257.468 59.0824 257.09 59.2264 256.766C59.3744 256.438 59.5844 256.184 59.8564 256.004C60.1324 255.82 60.4604 255.728 60.8404 255.728C61.2204 255.728 61.5464 255.82 61.8184 256.004C62.0904 256.184 62.2984 256.438 62.4424 256.766C62.5904 257.09 62.6644 257.468 62.6644 257.9C62.6644 258.332 62.5904 258.712 62.4424 259.04C62.2984 259.364 62.0904 259.618 61.8184 259.802C61.5464 259.982 61.2204 260.072 60.8404 260.072ZM60.8404 259.502C61.0684 259.502 61.2704 259.438 61.4464 259.31C61.6264 259.182 61.7664 258.998 61.8664 258.758C61.9664 258.518 62.0164 258.232 62.0164 257.9C62.0164 257.568 61.9664 257.282 61.8664 257.042C61.7664 256.802 61.6264 256.618 61.4464 256.49C61.2704 256.362 61.0684 256.298 60.8404 256.298C60.6084 256.298 60.4044 256.362 60.2284 256.49C60.0524 256.618 59.9144 256.802 59.8144 257.042C59.7144 257.282 59.6644 257.568 59.6644 257.9C59.6644 258.232 59.7144 258.518 59.8144 258.758C59.9144 258.998 60.0524 259.182 60.2284 259.31C60.4044 259.438 60.6084 259.502 60.8404 259.502ZM65.2873 260V259.16H63.1813V258.656L65.1853 255.8H65.9173V258.608H66.5053V259.16H65.9173V260H65.2873ZM63.8713 258.608H65.3233V256.502L63.8713 258.608Z" fill="black"/>
<rect x="202" y="286" width="25" height="12" rx="2" fill="#FE5C5C"/>
<path d="M207.948 294.072C207.672 294.072 207.436 294.018 207.24 293.91C207.044 293.802 206.89 293.658 206.778 293.478C206.67 293.298 206.604 293.102 206.58 292.89H207.174C207.21 293.098 207.296 293.258 207.432 293.37C207.568 293.482 207.742 293.538 207.954 293.538C208.246 293.538 208.486 293.402 208.674 293.13C208.866 292.854 208.968 292.432 208.98 291.864C208.884 292.04 208.734 292.19 208.53 292.314C208.33 292.438 208.098 292.5 207.834 292.5C207.598 292.5 207.376 292.444 207.168 292.332C206.96 292.22 206.792 292.064 206.664 291.864C206.536 291.66 206.472 291.42 206.472 291.144C206.472 290.9 206.532 290.67 206.652 290.454C206.772 290.238 206.94 290.064 207.156 289.932C207.376 289.796 207.636 289.728 207.936 289.728C208.244 289.728 208.504 289.786 208.716 289.902C208.928 290.018 209.098 290.172 209.226 290.364C209.354 290.556 209.446 290.772 209.502 291.012C209.562 291.252 209.592 291.498 209.592 291.75C209.592 292.214 209.526 292.62 209.394 292.968C209.266 293.316 209.08 293.588 208.836 293.784C208.592 293.976 208.296 294.072 207.948 294.072ZM207.978 291.954C208.146 291.954 208.296 291.916 208.428 291.84C208.56 291.764 208.664 291.664 208.74 291.54C208.82 291.412 208.86 291.272 208.86 291.12C208.86 290.956 208.82 290.812 208.74 290.688C208.664 290.56 208.558 290.46 208.422 290.388C208.29 290.316 208.14 290.28 207.972 290.28C207.804 290.28 207.654 290.316 207.522 290.388C207.39 290.46 207.284 290.56 207.204 290.688C207.128 290.812 207.09 290.954 207.09 291.114C207.09 291.37 207.174 291.574 207.342 291.726C207.51 291.878 207.722 291.954 207.978 291.954ZM212.009 294.072C211.629 294.072 211.301 293.982 211.025 293.802C210.753 293.618 210.543 293.364 210.395 293.04C210.251 292.712 210.179 292.332 210.179 291.9C210.179 291.468 210.251 291.09 210.395 290.766C210.543 290.438 210.753 290.184 211.025 290.004C211.301 289.82 211.629 289.728 212.009 289.728C212.389 289.728 212.715 289.82 212.987 290.004C213.259 290.184 213.467 290.438 213.611 290.766C213.759 291.09 213.833 291.468 213.833 291.9C213.833 292.332 213.759 292.712 213.611 293.04C213.467 293.364 213.259 293.618 212.987 293.802C212.715 293.982 212.389 294.072 212.009 294.072ZM212.009 293.502C212.237 293.502 212.439 293.438 212.615 293.31C212.795 293.182 212.935 292.998 213.035 292.758C213.135 292.518 213.185 292.232 213.185 291.9C213.185 291.568 213.135 291.282 213.035 291.042C212.935 290.802 212.795 290.618 212.615 290.49C212.439 290.362 212.237 290.298 212.009 290.298C211.777 290.298 211.573 290.362 211.397 290.49C211.221 290.618 211.083 290.802 210.983 291.042C210.883 291.282 210.833 291.568 210.833 291.9C210.833 292.232 210.883 292.518 210.983 292.758C211.083 292.998 211.221 293.182 211.397 293.31C211.573 293.438 211.777 293.502 212.009 293.502ZM214.53 294.036C214.41 294.036 214.31 293.998 214.23 293.922C214.154 293.842 214.116 293.748 214.116 293.64C214.116 293.528 214.154 293.434 214.23 293.358C214.31 293.278 214.41 293.238 214.53 293.238C214.65 293.238 214.748 293.278 214.824 293.358C214.9 293.434 214.938 293.528 214.938 293.64C214.938 293.748 214.9 293.842 214.824 293.922C214.748 293.998 214.65 294.036 214.53 294.036ZM217.043 294.072C216.663 294.072 216.335 293.982 216.059 293.802C215.787 293.618 215.577 293.364 215.429 293.04C215.285 292.712 215.213 292.332 215.213 291.9C215.213 291.468 215.285 291.09 215.429 290.766C215.577 290.438 215.787 290.184 216.059 290.004C216.335 289.82 216.663 289.728 217.043 289.728C217.423 289.728 217.749 289.82 218.021 290.004C218.293 290.184 218.501 290.438 218.645 290.766C218.793 291.09 218.867 291.468 218.867 291.9C218.867 292.332 218.793 292.712 218.645 293.04C218.501 293.364 218.293 293.618 218.021 293.802C217.749 293.982 217.423 294.072 217.043 294.072ZM217.043 293.502C217.271 293.502 217.473 293.438 217.649 293.31C217.829 293.182 217.969 292.998 218.069 292.758C218.169 292.518 218.219 292.232 218.219 291.9C218.219 291.568 218.169 291.282 218.069 291.042C217.969 290.802 217.829 290.618 217.649 290.49C217.473 290.362 217.271 290.298 217.043 290.298C216.811 290.298 216.607 290.362 216.431 290.49C216.255 290.618 216.117 290.802 216.017 291.042C215.917 291.282 215.867 291.568 215.867 291.9C215.867 292.232 215.917 292.518 216.017 292.758C216.117 292.998 216.255 293.182 216.431 293.31C216.607 293.438 216.811 293.502 217.043 293.502ZM221.489 294V293.16H219.383V292.656L221.387 289.8H222.119V292.608H222.707V293.16H222.119V294H221.489ZM220.073 292.608H221.525V290.502L220.073 292.608Z" fill="white"/>
</g>
<path d="M36.8726 360V356.364L36.1946 356.514V356.166L37.0406 355.8H37.3826V360H36.8726ZM39.9072 360.072C39.5352 360.072 39.2132 359.982 38.9412 359.802C38.6732 359.618 38.4672 359.364 38.3232 359.04C38.1792 358.712 38.1072 358.332 38.1072 357.9C38.1072 357.468 38.1792 357.09 38.3232 356.766C38.4672 356.438 38.6732 356.184 38.9412 356.004C39.2132 355.82 39.5352 355.728 39.9072 355.728C40.2792 355.728 40.5992 355.82 40.8672 356.004C41.1352 356.184 41.3412 356.438 41.4852 356.766C41.6292 357.09 41.7012 357.468 41.7012 357.9C41.7012 358.332 41.6292 358.712 41.4852 359.04C41.3412 359.364 41.1352 359.618 40.8672 359.802C40.5992 359.982 40.2792 360.072 39.9072 360.072ZM39.9072 359.628C40.1512 359.628 40.3692 359.56 40.5612 359.424C40.7572 359.284 40.9092 359.086 41.0172 358.83C41.1292 358.57 41.1852 358.26 41.1852 357.9C41.1852 357.54 41.1292 357.232 41.0172 356.976C40.9092 356.72 40.7572 356.524 40.5612 356.388C40.3692 356.248 40.1512 356.178 39.9072 356.178C39.6592 356.178 39.4392 356.248 39.2472 356.388C39.0552 356.524 38.9032 356.72 38.7912 356.976C38.6792 357.232 38.6232 357.54 38.6232 357.9C38.6232 358.26 38.6792 358.57 38.7912 358.83C38.9032 359.086 39.0552 359.284 39.2472 359.424C39.4392 359.56 39.6592 359.628 39.9072 359.628Z" fill="black"/>
<path d="M56.6104 360V359.646C56.8944 359.422 57.1624 359.196 57.4144 358.968C57.6704 358.736 57.8964 358.508 58.0924 358.284C58.2924 358.06 58.4484 357.84 58.5604 357.624C58.6764 357.408 58.7344 357.2 58.7344 357C58.7344 356.852 58.7084 356.714 58.6564 356.586C58.6084 356.458 58.5284 356.356 58.4164 356.28C58.3044 356.2 58.1524 356.16 57.9604 356.16C57.7764 356.16 57.6224 356.202 57.4984 356.286C57.3744 356.366 57.2804 356.474 57.2164 356.61C57.1564 356.746 57.1264 356.892 57.1264 357.048H56.6404C56.6404 356.772 56.6984 356.536 56.8144 356.34C56.9304 356.14 57.0884 355.988 57.2884 355.884C57.4884 355.78 57.7144 355.728 57.9664 355.728C58.3384 355.728 58.6424 355.834 58.8784 356.046C59.1184 356.254 59.2384 356.566 59.2384 356.982C59.2384 357.23 59.1764 357.476 59.0524 357.72C58.9284 357.96 58.7704 358.194 58.5784 358.422C58.3864 358.646 58.1804 358.856 57.9604 359.052C57.7444 359.248 57.5424 359.424 57.3544 359.58H59.3824V360H56.6104ZM61.6894 360.072C61.3174 360.072 60.9954 359.982 60.7234 359.802C60.4554 359.618 60.2494 359.364 60.1054 359.04C59.9614 358.712 59.8894 358.332 59.8894 357.9C59.8894 357.468 59.9614 357.09 60.1054 356.766C60.2494 356.438 60.4554 356.184 60.7234 356.004C60.9954 355.82 61.3174 355.728 61.6894 355.728C62.0614 355.728 62.3814 355.82 62.6494 356.004C62.9174 356.184 63.1234 356.438 63.2674 356.766C63.4114 357.09 63.4834 357.468 63.4834 357.9C63.4834 358.332 63.4114 358.712 63.2674 359.04C63.1234 359.364 62.9174 359.618 62.6494 359.802C62.3814 359.982 62.0614 360.072 61.6894 360.072ZM61.6894 359.628C61.9334 359.628 62.1514 359.56 62.3434 359.424C62.5394 359.284 62.6914 359.086 62.7994 358.83C62.9114 358.57 62.9674 358.26 62.9674 357.9C62.9674 357.54 62.9114 357.232 62.7994 356.976C62.6914 356.72 62.5394 356.524 62.3434 356.388C62.1514 356.248 61.9334 356.178 61.6894 356.178C61.4414 356.178 61.2214 356.248 61.0294 356.388C60.8374 356.524 60.6854 356.72 60.5734 356.976C60.4614 357.232 60.4054 357.54 60.4054 357.9C60.4054 358.26 60.4614 358.57 60.5734 358.83C60.6854 359.086 60.8374 359.284 61.0294 359.424C61.2214 359.56 61.4414 359.628 61.6894 359.628Z" fill="black"/>
<path d="M79.9083 360.072C79.6403 360.072 79.3983 360.024 79.1823 359.928C78.9663 359.828 78.7923 359.68 78.6603 359.484C78.5323 359.288 78.4643 359.044 78.4563 358.752H78.9663C78.9703 358.992 79.0543 359.2 79.2183 359.376C79.3823 359.548 79.6123 359.634 79.9083 359.634C80.2043 359.634 80.4263 359.552 80.5743 359.388C80.7263 359.224 80.8023 359.026 80.8023 358.794C80.8023 358.598 80.7543 358.438 80.6583 358.314C80.5663 358.19 80.4403 358.098 80.2803 358.038C80.1243 357.978 79.9523 357.948 79.7643 357.948H79.4523V357.522H79.7643C80.0363 357.522 80.2483 357.46 80.4003 357.336C80.5563 357.212 80.6343 357.038 80.6343 356.814C80.6343 356.626 80.5723 356.472 80.4483 356.352C80.3283 356.228 80.1483 356.166 79.9083 356.166C79.6763 356.166 79.4903 356.236 79.3503 356.376C79.2103 356.512 79.1323 356.684 79.1163 356.892H78.6063C78.6183 356.664 78.6783 356.462 78.7863 356.286C78.8983 356.11 79.0503 355.974 79.2423 355.878C79.4343 355.778 79.6563 355.728 79.9083 355.728C80.1803 355.728 80.4063 355.776 80.5863 355.872C80.7703 355.968 80.9083 356.096 81.0003 356.256C81.0963 356.416 81.1443 356.592 81.1443 356.784C81.1443 356.996 81.0863 357.19 80.9703 357.366C80.8543 357.538 80.6803 357.654 80.4483 357.714C80.6963 357.766 80.9023 357.884 81.0663 358.068C81.2303 358.252 81.3123 358.494 81.3123 358.794C81.3123 359.026 81.2583 359.24 81.1503 359.436C81.0463 359.628 80.8903 359.782 80.6823 359.898C80.4743 360.014 80.2163 360.072 79.9083 360.072ZM83.7656 360.072C83.3936 360.072 83.0716 359.982 82.7996 359.802C82.5316 359.618 82.3256 359.364 82.1816 359.04C82.0376 358.712 81.9656 358.332 81.9656 357.9C81.9656 357.468 82.0376 357.09 82.1816 356.766C82.3256 356.438 82.5316 356.184 82.7996 356.004C83.0716 355.82 83.3936 355.728 83.7656 355.728C84.1376 355.728 84.4576 355.82 84.7256 356.004C84.9936 356.184 85.1996 356.438 85.3436 356.766C85.4876 357.09 85.5596 357.468 85.5596 357.9C85.5596 358.332 85.4876 358.712 85.3436 359.04C85.1996 359.364 84.9936 359.618 84.7256 359.802C84.4576 359.982 84.1376 360.072 83.7656 360.072ZM83.7656 359.628C84.0096 359.628 84.2276 359.56 84.4196 359.424C84.6156 359.284 84.7676 359.086 84.8756 358.83C84.9876 358.57 85.0436 358.26 85.0436 357.9C85.0436 357.54 84.9876 357.232 84.8756 356.976C84.7676 356.72 84.6156 356.524 84.4196 356.388C84.2276 356.248 84.0096 356.178 83.7656 356.178C83.5176 356.178 83.2976 356.248 83.1056 356.388C82.9136 356.524 82.7616 356.72 82.6496 356.976C82.5376 357.232 82.4816 357.54 82.4816 357.9C82.4816 358.26 82.5376 358.57 82.6496 358.83C82.7616 359.086 82.9136 359.284 83.1056 359.424C83.2976 359.56 83.5176 359.628 83.7656 359.628Z" fill="black"/>
<path d="M102.45 360V359.1H100.32V358.71L102.36 355.8H102.948V358.656H103.572V359.1H102.948V360H102.45ZM100.878 358.656H102.474V356.358L100.878 358.656ZM105.818 360.072C105.446 360.072 105.124 359.982 104.852 359.802C104.584 359.618 104.378 359.364 104.234 359.04C104.09 358.712 104.018 358.332 104.018 357.9C104.018 357.468 104.09 357.09 104.234 356.766C104.378 356.438 104.584 356.184 104.852 356.004C105.124 355.82 105.446 355.728 105.818 355.728C106.19 355.728 106.51 355.82 106.778 356.004C107.046 356.184 107.252 356.438 107.396 356.766C107.54 357.09 107.612 357.468 107.612 357.9C107.612 358.332 107.54 358.712 107.396 359.04C107.252 359.364 107.046 359.618 106.778 359.802C106.51 359.982 106.19 360.072 105.818 360.072ZM105.818 359.628C106.062 359.628 106.28 359.56 106.472 359.424C106.668 359.284 106.82 359.086 106.928 358.83C107.04 358.57 107.096 358.26 107.096 357.9C107.096 357.54 107.04 357.232 106.928 356.976C106.82 356.72 106.668 356.524 106.472 356.388C106.28 356.248 106.062 356.178 105.818 356.178C105.57 356.178 105.35 356.248 105.158 356.388C104.966 356.524 104.814 356.72 104.702 356.976C104.59 357.232 104.534 357.54 104.534 357.9C104.534 358.26 104.59 358.57 104.702 358.83C104.814 359.086 104.966 359.284 105.158 359.424C105.35 359.56 105.57 359.628 105.818 359.628Z" fill="black"/>
<path d="M123.955 360.072C123.667 360.072 123.417 360.02 123.205 359.916C122.993 359.812 122.823 359.67 122.695 359.49C122.571 359.306 122.495 359.098 122.467 358.866H122.959C123.007 359.098 123.119 359.286 123.295 359.43C123.471 359.57 123.693 359.64 123.961 359.64C124.161 359.64 124.333 359.594 124.477 359.502C124.621 359.406 124.731 359.278 124.807 359.118C124.887 358.958 124.927 358.78 124.927 358.584C124.927 358.272 124.839 358.02 124.663 357.828C124.487 357.636 124.259 357.54 123.979 357.54C123.747 357.54 123.549 357.592 123.385 357.696C123.221 357.8 123.101 357.936 123.025 358.104H122.545L122.905 355.8H125.107V356.238H123.295L123.049 357.516C123.145 357.4 123.277 357.304 123.445 357.228C123.617 357.152 123.813 357.114 124.033 357.114C124.309 357.114 124.549 357.178 124.753 357.306C124.961 357.434 125.123 357.608 125.239 357.828C125.355 358.048 125.413 358.298 125.413 358.578C125.413 358.846 125.355 359.094 125.239 359.322C125.127 359.55 124.961 359.732 124.741 359.868C124.525 360.004 124.263 360.072 123.955 360.072ZM127.839 360.072C127.467 360.072 127.145 359.982 126.873 359.802C126.605 359.618 126.399 359.364 126.255 359.04C126.111 358.712 126.039 358.332 126.039 357.9C126.039 357.468 126.111 357.09 126.255 356.766C126.399 356.438 126.605 356.184 126.873 356.004C127.145 355.82 127.467 355.728 127.839 355.728C128.211 355.728 128.531 355.82 128.799 356.004C129.067 356.184 129.273 356.438 129.417 356.766C129.561 357.09 129.633 357.468 129.633 357.9C129.633 358.332 129.561 358.712 129.417 359.04C129.273 359.364 129.067 359.618 128.799 359.802C128.531 359.982 128.211 360.072 127.839 360.072ZM127.839 359.628C128.083 359.628 128.301 359.56 128.493 359.424C128.689 359.284 128.841 359.086 128.949 358.83C129.061 358.57 129.117 358.26 129.117 357.9C129.117 357.54 129.061 357.232 128.949 356.976C128.841 356.72 128.689 356.524 128.493 356.388C128.301 356.248 128.083 356.178 127.839 356.178C127.591 356.178 127.371 356.248 127.179 356.388C126.987 356.524 126.835 356.72 126.723 356.976C126.611 357.232 126.555 357.54 126.555 357.9C126.555 358.26 126.611 358.57 126.723 358.83C126.835 359.086 126.987 359.284 127.179 359.424C127.371 359.56 127.591 359.628 127.839 359.628Z" fill="black"/>
<path d="M145.986 360.072C145.682 360.072 145.426 360.016 145.218 359.904C145.01 359.788 144.842 359.634 144.714 359.442C144.59 359.25 144.498 359.036 144.438 358.8C144.382 358.56 144.354 358.316 144.354 358.068C144.354 357.604 144.418 357.198 144.546 356.85C144.674 356.498 144.858 356.224 145.098 356.028C145.342 355.828 145.636 355.728 145.98 355.728C146.244 355.728 146.47 355.78 146.658 355.884C146.846 355.988 146.994 356.128 147.102 356.304C147.214 356.476 147.284 356.668 147.312 356.88H146.844C146.8 356.652 146.702 356.476 146.55 356.352C146.398 356.228 146.206 356.166 145.974 356.166C145.658 356.166 145.392 356.316 145.176 356.616C144.964 356.912 144.85 357.376 144.834 358.008C144.93 357.82 145.082 357.658 145.29 357.522C145.502 357.382 145.756 357.312 146.052 357.312C146.292 357.312 146.516 357.368 146.724 357.48C146.936 357.592 147.108 357.75 147.24 357.954C147.372 358.154 147.438 358.39 147.438 358.662C147.438 358.898 147.38 359.124 147.264 359.34C147.148 359.556 146.98 359.732 146.76 359.868C146.544 360.004 146.286 360.072 145.986 360.072ZM145.95 359.628C146.138 359.628 146.306 359.588 146.454 359.508C146.602 359.428 146.718 359.318 146.802 359.178C146.886 359.034 146.928 358.87 146.928 358.686C146.928 358.402 146.834 358.176 146.646 358.008C146.462 357.836 146.23 357.75 145.95 357.75C145.762 357.75 145.594 357.794 145.446 357.882C145.298 357.966 145.18 358.08 145.092 358.224C145.008 358.368 144.966 358.524 144.966 358.692C144.966 358.872 145.008 359.034 145.092 359.178C145.18 359.318 145.298 359.428 145.446 359.508C145.594 359.588 145.762 359.628 145.95 359.628ZM149.892 360.072C149.52 360.072 149.198 359.982 148.926 359.802C148.658 359.618 148.452 359.364 148.308 359.04C148.164 358.712 148.092 358.332 148.092 357.9C148.092 357.468 148.164 357.09 148.308 356.766C148.452 356.438 148.658 356.184 148.926 356.004C149.198 355.82 149.52 355.728 149.892 355.728C150.264 355.728 150.584 355.82 150.852 356.004C151.12 356.184 151.326 356.438 151.47 356.766C151.614 357.09 151.686 357.468 151.686 357.9C151.686 358.332 151.614 358.712 151.47 359.04C151.326 359.364 151.12 359.618 150.852 359.802C150.584 359.982 150.264 360.072 149.892 360.072ZM149.892 359.628C150.136 359.628 150.354 359.56 150.546 359.424C150.742 359.284 150.894 359.086 151.002 358.83C151.114 358.57 151.17 358.26 151.17 357.9C151.17 357.54 151.114 357.232 151.002 356.976C150.894 356.72 150.742 356.524 150.546 356.388C150.354 356.248 150.136 356.178 149.892 356.178C149.644 356.178 149.424 356.248 149.232 356.388C149.04 356.524 148.888 356.72 148.776 356.976C148.664 357.232 148.608 357.54 148.608 357.9C148.608 358.26 148.664 358.57 148.776 358.83C148.888 359.086 149.04 359.284 149.232 359.424C149.424 359.56 149.644 359.628 149.892 359.628Z" fill="black"/>
<path d="M167.153 360L168.821 356.232H166.517V355.8H169.337V356.178L167.687 360H167.153ZM171.561 360.072C171.189 360.072 170.867 359.982 170.595 359.802C170.327 359.618 170.121 359.364 169.977 359.04C169.833 358.712 169.761 358.332 169.761 357.9C169.761 357.468 169.833 357.09 169.977 356.766C170.121 356.438 170.327 356.184 170.595 356.004C170.867 355.82 171.189 355.728 171.561 355.728C171.933 355.728 172.253 355.82 172.521 356.004C172.789 356.184 172.995 356.438 173.139 356.766C173.283 357.09 173.355 357.468 173.355 357.9C173.355 358.332 173.283 358.712 173.139 359.04C172.995 359.364 172.789 359.618 172.521 359.802C172.253 359.982 171.933 360.072 171.561 360.072ZM171.561 359.628C171.805 359.628 172.023 359.56 172.215 359.424C172.411 359.284 172.563 359.086 172.671 358.83C172.783 358.57 172.839 358.26 172.839 357.9C172.839 357.54 172.783 357.232 172.671 356.976C172.563 356.72 172.411 356.524 172.215 356.388C172.023 356.248 171.805 356.178 171.561 356.178C171.313 356.178 171.093 356.248 170.901 356.388C170.709 356.524 170.557 356.72 170.445 356.976C170.333 357.232 170.277 357.54 170.277 357.9C170.277 358.26 170.333 358.57 170.445 358.83C170.557 359.086 170.709 359.284 170.901 359.424C171.093 359.56 171.313 359.628 171.561 359.628Z" fill="black"/>
<path d="M189.919 360.072C189.643 360.072 189.395 360.022 189.175 359.922C188.955 359.818 188.781 359.676 188.653 359.496C188.529 359.312 188.467 359.1 188.467 358.86C188.467 358.604 188.541 358.374 188.689 358.17C188.841 357.966 189.041 357.83 189.289 357.762C189.061 357.686 188.885 357.564 188.761 357.396C188.637 357.228 188.575 357.044 188.575 356.844C188.575 356.64 188.629 356.454 188.737 356.286C188.845 356.114 188.999 355.978 189.199 355.878C189.399 355.778 189.639 355.728 189.919 355.728C190.199 355.728 190.439 355.778 190.639 355.878C190.839 355.978 190.993 356.114 191.101 356.286C191.209 356.454 191.263 356.64 191.263 356.844C191.263 357.04 191.201 357.224 191.077 357.396C190.953 357.564 190.777 357.686 190.549 357.762C190.797 357.83 190.995 357.966 191.143 358.17C191.295 358.374 191.371 358.604 191.371 358.86C191.371 359.1 191.307 359.312 191.179 359.496C191.055 359.676 190.883 359.818 190.663 359.922C190.443 360.022 190.195 360.072 189.919 360.072ZM189.919 357.582C190.175 357.582 190.377 357.518 190.525 357.39C190.677 357.258 190.753 357.086 190.753 356.874C190.753 356.638 190.679 356.46 190.531 356.34C190.383 356.22 190.179 356.16 189.919 356.16C189.659 356.16 189.455 356.22 189.307 356.34C189.163 356.46 189.091 356.638 189.091 356.874C189.091 357.086 189.165 357.258 189.313 357.39C189.461 357.518 189.663 357.582 189.919 357.582ZM189.919 359.628C190.235 359.628 190.471 359.556 190.627 359.412C190.787 359.264 190.867 359.07 190.867 358.83C190.867 358.558 190.781 358.352 190.609 358.212C190.437 358.072 190.207 358.002 189.919 358.002C189.631 358.002 189.401 358.072 189.229 358.212C189.057 358.352 188.971 358.558 188.971 358.83C188.971 359.07 189.049 359.264 189.205 359.412C189.365 359.556 189.603 359.628 189.919 359.628ZM193.833 360.072C193.461 360.072 193.139 359.982 192.867 359.802C192.599 359.618 192.393 359.364 192.249 359.04C192.105 358.712 192.033 358.332 192.033 357.9C192.033 357.468 192.105 357.09 192.249 356.766C192.393 356.438 192.599 356.184 192.867 356.004C193.139 355.82 193.461 355.728 193.833 355.728C194.205 355.728 194.525 355.82 194.793 356.004C195.061 356.184 195.267 356.438 195.411 356.766C195.555 357.09 195.627 357.468 195.627 357.9C195.627 358.332 195.555 358.712 195.411 359.04C195.267 359.364 195.061 359.618 194.793 359.802C194.525 359.982 194.205 360.072 193.833 360.072ZM193.833 359.628C194.077 359.628 194.295 359.56 194.487 359.424C194.683 359.284 194.835 359.086 194.943 358.83C195.055 358.57 195.111 358.26 195.111 357.9C195.111 357.54 195.055 357.232 194.943 356.976C194.835 356.72 194.683 356.524 194.487 356.388C194.295 356.248 194.077 356.178 193.833 356.178C193.585 356.178 193.365 356.248 193.173 356.388C192.981 356.524 192.829 356.72 192.717 356.976C192.605 357.232 192.549 357.54 192.549 357.9C192.549 358.26 192.605 358.57 192.717 358.83C192.829 359.086 192.981 359.284 193.173 359.424C193.365 359.56 193.585 359.628 193.833 359.628Z" fill="black"/>
<path d="M211.86 360.072C211.596 360.072 211.37 360.02 211.182 359.916C210.994 359.812 210.844 359.674 210.732 359.502C210.624 359.326 210.558 359.132 210.534 358.92H211.002C211.042 359.148 211.138 359.324 211.29 359.448C211.442 359.572 211.634 359.634 211.866 359.634C212.186 359.634 212.452 359.486 212.664 359.19C212.876 358.89 212.99 358.424 213.006 357.792C212.91 357.98 212.756 358.144 212.544 358.284C212.336 358.42 212.084 358.488 211.788 358.488C211.552 358.488 211.328 358.432 211.116 358.32C210.904 358.208 210.732 358.052 210.6 357.852C210.468 357.648 210.402 357.41 210.402 357.138C210.402 356.902 210.46 356.676 210.576 356.46C210.696 356.244 210.864 356.068 211.08 355.932C211.296 355.796 211.554 355.728 211.854 355.728C212.158 355.728 212.414 355.786 212.622 355.902C212.83 356.014 212.996 356.166 213.12 356.358C213.248 356.55 213.34 356.766 213.396 357.006C213.456 357.242 213.486 357.484 213.486 357.732C213.486 358.196 213.422 358.604 213.294 358.956C213.166 359.304 212.98 359.578 212.736 359.778C212.496 359.974 212.204 360.072 211.86 360.072ZM211.89 358.05C212.078 358.05 212.246 358.008 212.394 357.924C212.542 357.836 212.66 357.72 212.748 357.576C212.836 357.432 212.88 357.276 212.88 357.108C212.88 356.928 212.836 356.768 212.748 356.628C212.66 356.484 212.542 356.372 212.394 356.292C212.246 356.212 212.078 356.172 211.89 356.172C211.702 356.172 211.534 356.212 211.386 356.292C211.238 356.372 211.122 356.484 211.038 356.628C210.954 356.768 210.912 356.93 210.912 357.114C210.912 357.398 211.004 357.626 211.188 357.798C211.376 357.966 211.61 358.05 211.89 358.05ZM215.892 360.072C215.52 360.072 215.198 359.982 214.926 359.802C214.658 359.618 214.452 359.364 214.308 359.04C214.164 358.712 214.092 358.332 214.092 357.9C214.092 357.468 214.164 357.09 214.308 356.766C214.452 356.438 214.658 356.184 214.926 356.004C215.198 355.82 215.52 355.728 215.892 355.728C216.264 355.728 216.584 355.82 216.852 356.004C217.12 356.184 217.326 356.438 217.47 356.766C217.614 357.09 217.686 357.468 217.686 357.9C217.686 358.332 217.614 358.712 217.47 359.04C217.326 359.364 217.12 359.618 216.852 359.802C216.584 359.982 216.264 360.072 215.892 360.072ZM215.892 359.628C216.136 359.628 216.354 359.56 216.546 359.424C216.742 359.284 216.894 359.086 217.002 358.83C217.114 358.57 217.17 358.26 217.17 357.9C217.17 357.54 217.114 357.232 217.002 356.976C216.894 356.72 216.742 356.524 216.546 356.388C216.354 356.248 216.136 356.178 215.892 356.178C215.644 356.178 215.424 356.248 215.232 356.388C215.04 356.524 214.888 356.72 214.776 356.976C214.664 357.232 214.608 357.54 214.608 357.9C214.608 358.26 214.664 358.57 214.776 358.83C214.888 359.086 215.04 359.284 215.232 359.424C215.424 359.56 215.644 359.628 215.892 359.628Z" fill="black"/>
<path d="M233.293 360V356.364L232.615 356.514V356.166L233.461 355.8H233.803V360H233.293ZM236.327 360.072C235.955 360.072 235.633 359.982 235.361 359.802C235.093 359.618 234.887 359.364 234.743 359.04C234.599 358.712 234.527 358.332 234.527 357.9C234.527 357.468 234.599 357.09 234.743 356.766C234.887 356.438 235.093 356.184 235.361 356.004C235.633 355.82 235.955 355.728 236.327 355.728C236.699 355.728 237.019 355.82 237.287 356.004C237.555 356.184 237.761 356.438 237.905 356.766C238.049 357.09 238.121 357.468 238.121 357.9C238.121 358.332 238.049 358.712 237.905 359.04C237.761 359.364 237.555 359.618 237.287 359.802C237.019 359.982 236.699 360.072 236.327 360.072ZM236.327 359.628C236.571 359.628 236.789 359.56 236.981 359.424C237.177 359.284 237.329 359.086 237.437 358.83C237.549 358.57 237.605 358.26 237.605 357.9C237.605 357.54 237.549 357.232 237.437 356.976C237.329 356.72 237.177 356.524 236.981 356.388C236.789 356.248 236.571 356.178 236.327 356.178C236.079 356.178 235.859 356.248 235.667 356.388C235.475 356.524 235.323 356.72 235.211 356.976C235.099 357.232 235.043 357.54 235.043 357.9C235.043 358.26 235.099 358.57 235.211 358.83C235.323 359.086 235.475 359.284 235.667 359.424C235.859 359.56 236.079 359.628 236.327 359.628ZM240.487 360.072C240.115 360.072 239.793 359.982 239.521 359.802C239.253 359.618 239.047 359.364 238.903 359.04C238.759 358.712 238.687 358.332 238.687 357.9C238.687 357.468 238.759 357.09 238.903 356.766C239.047 356.438 239.253 356.184 239.521 356.004C239.793 355.82 240.115 355.728 240.487 355.728C240.859 355.728 241.179 355.82 241.447 356.004C241.715 356.184 241.921 356.438 242.065 356.766C242.209 357.09 242.281 357.468 242.281 357.9C242.281 358.332 242.209 358.712 242.065 359.04C241.921 359.364 241.715 359.618 241.447 359.802C241.179 359.982 240.859 360.072 240.487 360.072ZM240.487 359.628C240.731 359.628 240.949 359.56 241.141 359.424C241.337 359.284 241.489 359.086 241.597 358.83C241.709 358.57 241.765 358.26 241.765 357.9C241.765 357.54 241.709 357.232 241.597 356.976C241.489 356.72 241.337 356.524 241.141 356.388C240.949 356.248 240.731 356.178 240.487 356.178C240.239 356.178 240.019 356.248 239.827 356.388C239.635 356.524 239.483 356.72 239.371 356.976C239.259 357.232 239.203 357.54 239.203 357.9C239.203 358.26 239.259 358.57 239.371 358.83C239.483 359.086 239.635 359.284 239.827 359.424C240.019 359.56 240.239 359.628 240.487 359.628Z" fill="black"/>
</g>
<g filter="url(#filter3_d_1_67)">
<path d="M196 26C196 17.1634 203.163 10 212 10H428V201C428 209.837 420.837 217 412 217H196V26Z" fill="white" shape-rendering="crispEdges"/>
<path d="M221.003 39V32H221.843V39H221.003ZM223.277 39V34.04H224.037L224.087 34.93C224.247 34.6167 224.477 34.37 224.777 34.19C225.077 34.01 225.417 33.92 225.797 33.92C226.384 33.92 226.85 34.1 227.197 34.46C227.55 34.8133 227.727 35.36 227.727 36.1V39H226.887V36.19C226.887 35.1567 226.46 34.64 225.607 34.64C225.18 34.64 224.824 34.7967 224.537 35.11C224.257 35.4167 224.117 35.8567 224.117 36.43V39H223.277ZM230.332 39L228.452 34.04H229.332L230.822 38.19L232.322 34.04H233.182L231.302 39H230.332ZM236.093 39.12C235.62 39.12 235.2 39.0133 234.833 38.8C234.466 38.58 234.176 38.2767 233.963 37.89C233.756 37.5033 233.653 37.0467 233.653 36.52C233.653 36 233.756 35.5467 233.963 35.16C234.17 34.7667 234.456 34.4633 234.823 34.25C235.196 34.03 235.626 33.92 236.113 33.92C236.593 33.92 237.006 34.03 237.353 34.25C237.706 34.4633 237.976 34.7467 238.163 35.1C238.35 35.4533 238.443 35.8333 238.443 36.24C238.443 36.3133 238.44 36.3867 238.433 36.46C238.433 36.5333 238.433 36.6167 238.433 36.71H234.483C234.503 37.09 234.59 37.4067 234.743 37.66C234.903 37.9067 235.1 38.0933 235.333 38.22C235.573 38.3467 235.826 38.41 236.093 38.41C236.44 38.41 236.73 38.33 236.963 38.17C237.196 38.01 237.366 37.7933 237.473 37.52H238.303C238.17 37.98 237.913 38.3633 237.533 38.67C237.16 38.97 236.68 39.12 236.093 39.12ZM236.093 34.63C235.693 34.63 235.336 34.7533 235.023 35C234.716 35.24 234.54 35.5933 234.493 36.06H237.613C237.593 35.6133 237.44 35.2633 237.153 35.01C236.866 34.7567 236.513 34.63 236.093 34.63ZM241.456 39.12C240.863 39.12 240.37 38.97 239.976 38.67C239.583 38.37 239.353 37.9633 239.286 37.45H240.146C240.2 37.71 240.336 37.9367 240.556 38.13C240.783 38.3167 241.086 38.41 241.466 38.41C241.82 38.41 242.08 38.3367 242.246 38.19C242.413 38.0367 242.496 37.8567 242.496 37.65C242.496 37.35 242.386 37.15 242.166 37.05C241.953 36.95 241.65 36.86 241.256 36.78C240.99 36.7267 240.723 36.65 240.456 36.55C240.19 36.45 239.966 36.31 239.786 36.13C239.606 35.9433 239.516 35.7 239.516 35.4C239.516 34.9667 239.676 34.6133 239.996 34.34C240.323 34.06 240.763 33.92 241.316 33.92C241.843 33.92 242.273 34.0533 242.606 34.32C242.946 34.58 243.143 34.9533 243.196 35.44H242.366C242.333 35.1867 242.223 34.99 242.036 34.85C241.856 34.7033 241.613 34.63 241.306 34.63C241.006 34.63 240.773 34.6933 240.606 34.82C240.446 34.9467 240.366 35.1133 240.366 35.32C240.366 35.52 240.47 35.6767 240.676 35.79C240.89 35.9033 241.176 36 241.536 36.08C241.843 36.1467 242.133 36.23 242.406 36.33C242.686 36.4233 242.913 36.5667 243.086 36.76C243.266 36.9467 243.356 37.22 243.356 37.58C243.363 38.0267 243.193 38.3967 242.846 38.69C242.506 38.9767 242.043 39.12 241.456 39.12ZM246.292 39C245.838 39 245.482 38.89 245.222 38.67C244.962 38.45 244.832 38.0533 244.832 37.48V34.75H243.972V34.04H244.832L244.942 32.85H245.672V34.04H247.132V34.75H245.672V37.48C245.672 37.7933 245.735 38.0067 245.862 38.12C245.988 38.2267 246.212 38.28 246.532 38.28H247.052V39H246.292ZM248.199 39V34.04H248.959L249.019 34.76C249.179 34.4933 249.392 34.2867 249.659 34.14C249.925 33.9933 250.225 33.92 250.559 33.92C250.952 33.92 251.289 34 251.569 34.16C251.855 34.32 252.075 34.5633 252.229 34.89C252.402 34.59 252.639 34.3533 252.939 34.18C253.245 34.0067 253.575 33.92 253.929 33.92C254.522 33.92 254.995 34.1 255.349 34.46C255.702 34.8133 255.879 35.36 255.879 36.1V39H255.049V36.19C255.049 35.6767 254.945 35.29 254.739 35.03C254.532 34.77 254.235 34.64 253.849 34.64C253.449 34.64 253.115 34.7967 252.849 35.11C252.589 35.4167 252.459 35.8567 252.459 36.43V39H251.619V36.19C251.619 35.6767 251.515 35.29 251.309 35.03C251.102 34.77 250.805 34.64 250.419 34.64C250.025 34.64 249.695 34.7967 249.429 35.11C249.169 35.4167 249.039 35.8567 249.039 36.43V39H248.199ZM259.374 39.12C258.901 39.12 258.481 39.0133 258.114 38.8C257.747 38.58 257.457 38.2767 257.244 37.89C257.037 37.5033 256.934 37.0467 256.934 36.52C256.934 36 257.037 35.5467 257.244 35.16C257.451 34.7667 257.737 34.4633 258.104 34.25C258.477 34.03 258.907 33.92 259.394 33.92C259.874 33.92 260.287 34.03 260.634 34.25C260.987 34.4633 261.257 34.7467 261.444 35.1C261.631 35.4533 261.724 35.8333 261.724 36.24C261.724 36.3133 261.721 36.3867 261.714 36.46C261.714 36.5333 261.714 36.6167 261.714 36.71H257.764C257.784 37.09 257.871 37.4067 258.024 37.66C258.184 37.9067 258.381 38.0933 258.614 38.22C258.854 38.3467 259.107 38.41 259.374 38.41C259.721 38.41 260.011 38.33 260.244 38.17C260.477 38.01 260.647 37.7933 260.754 37.52H261.584C261.451 37.98 261.194 38.3633 260.814 38.67C260.441 38.97 259.961 39.12 259.374 39.12ZM259.374 34.63C258.974 34.63 258.617 34.7533 258.304 35C257.997 35.24 257.821 35.5933 257.774 36.06H260.894C260.874 35.6133 260.721 35.2633 260.434 35.01C260.147 34.7567 259.794 34.63 259.374 34.63ZM262.837 39V34.04H263.597L263.647 34.93C263.807 34.6167 264.037 34.37 264.337 34.19C264.637 34.01 264.977 33.92 265.357 33.92C265.944 33.92 266.411 34.1 266.757 34.46C267.111 34.8133 267.287 35.36 267.287 36.1V39H266.447V36.19C266.447 35.1567 266.021 34.64 265.167 34.64C264.741 34.64 264.384 34.7967 264.097 35.11C263.817 35.4167 263.677 35.8567 263.677 36.43V39H262.837ZM270.52 39C270.067 39 269.71 38.89 269.45 38.67C269.19 38.45 269.06 38.0533 269.06 37.48V34.75H268.2V34.04H269.06L269.17 32.85H269.9V34.04H271.36V34.75H269.9V37.48C269.9 37.7933 269.963 38.0067 270.09 38.12C270.217 38.2267 270.44 38.28 270.76 38.28H271.28V39H270.52Z" fill="black"/>
<rect x="220" y="126" width="24" height="55" rx="4" fill="#232E4F"/>
<path d="M225.712 193V189.364L225.034 189.514V189.166L225.88 188.8H226.222V193H225.712ZM228.747 193.072C228.375 193.072 228.053 192.982 227.781 192.802C227.513 192.618 227.307 192.364 227.163 192.04C227.019 191.712 226.947 191.332 226.947 190.9C226.947 190.468 227.019 190.09 227.163 189.766C227.307 189.438 227.513 189.184 227.781 189.004C228.053 188.82 228.375 188.728 228.747 188.728C229.119 188.728 229.439 188.82 229.707 189.004C229.975 189.184 230.181 189.438 230.325 189.766C230.469 190.09 230.541 190.468 230.541 190.9C230.541 191.332 230.469 191.712 230.325 192.04C230.181 192.364 229.975 192.618 229.707 192.802C229.439 192.982 229.119 193.072 228.747 193.072ZM228.747 192.628C228.991 192.628 229.209 192.56 229.401 192.424C229.597 192.284 229.749 192.086 229.857 191.83C229.969 191.57 230.025 191.26 230.025 190.9C230.025 190.54 229.969 190.232 229.857 189.976C229.749 189.72 229.597 189.524 229.401 189.388C229.209 189.248 228.991 189.178 228.747 189.178C228.499 189.178 228.279 189.248 228.087 189.388C227.895 189.524 227.743 189.72 227.631 189.976C227.519 190.232 227.463 190.54 227.463 190.9C227.463 191.26 227.519 191.57 227.631 191.83C227.743 192.086 227.895 192.284 228.087 192.424C228.279 192.56 228.499 192.628 228.747 192.628ZM232.907 193.072C232.535 193.072 232.213 192.982 231.941 192.802C231.673 192.618 231.467 192.364 231.323 192.04C231.179 191.712 231.107 191.332 231.107 190.9C231.107 190.468 231.179 190.09 231.323 189.766C231.467 189.438 231.673 189.184 231.941 189.004C232.213 188.82 232.535 188.728 232.907 188.728C233.279 188.728 233.599 188.82 233.867 189.004C234.135 189.184 234.341 189.438 234.485 189.766C234.629 190.09 234.701 190.468 234.701 190.9C234.701 191.332 234.629 191.712 234.485 192.04C234.341 192.364 234.135 192.618 233.867 192.802C233.599 192.982 233.279 193.072 232.907 193.072ZM232.907 192.628C233.151 192.628 233.369 192.56 233.561 192.424C233.757 192.284 233.909 192.086 234.017 191.83C234.129 191.57 234.185 191.26 234.185 190.9C234.185 190.54 234.129 190.232 234.017 189.976C233.909 189.72 233.757 189.524 233.561 189.388C233.369 189.248 233.151 189.178 232.907 189.178C232.659 189.178 232.439 189.248 232.247 189.388C232.055 189.524 231.903 189.72 231.791 189.976C231.679 190.232 231.623 190.54 231.623 190.9C231.623 191.26 231.679 191.57 231.791 191.83C231.903 192.086 232.055 192.284 232.247 192.424C232.439 192.56 232.659 192.628 232.907 192.628ZM237.067 193.072C236.695 193.072 236.373 192.982 236.101 192.802C235.833 192.618 235.627 192.364 235.483 192.04C235.339 191.712 235.267 191.332 235.267 190.9C235.267 190.468 235.339 190.09 235.483 189.766C235.627 189.438 235.833 189.184 236.101 189.004C236.373 188.82 236.695 188.728 237.067 188.728C237.439 188.728 237.759 188.82 238.027 189.004C238.295 189.184 238.501 189.438 238.645 189.766C238.789 190.09 238.861 190.468 238.861 190.9C238.861 191.332 238.789 191.712 238.645 192.04C238.501 192.364 238.295 192.618 238.027 192.802C237.759 192.982 237.439 193.072 237.067 193.072ZM237.067 192.628C237.311 192.628 237.529 192.56 237.721 192.424C237.917 192.284 238.069 192.086 238.177 191.83C238.289 191.57 238.345 191.26 238.345 190.9C238.345 190.54 238.289 190.232 238.177 189.976C238.069 189.72 237.917 189.524 237.721 189.388C237.529 189.248 237.311 189.178 237.067 189.178C236.819 189.178 236.599 189.248 236.407 189.388C236.215 189.524 236.063 189.72 235.951 189.976C235.839 190.232 235.783 190.54 235.783 190.9C235.783 191.26 235.839 191.57 235.951 191.83C236.063 192.086 236.215 192.284 236.407 192.424C236.599 192.56 236.819 192.628 237.067 192.628Z" fill="black"/>
<rect x="260" y="104" width="24" height="77" rx="4" fill="#A8A8A8"/>
<path d="M264.45 193V192.646C264.734 192.422 265.002 192.196 265.254 191.968C265.51 191.736 265.736 191.508 265.932 191.284C266.132 191.06 266.288 190.84 266.4 190.624C266.516 190.408 266.574 190.2 266.574 190C266.574 189.852 266.548 189.714 266.496 189.586C266.448 189.458 266.368 189.356 266.256 189.28C266.144 189.2 265.992 189.16 265.8 189.16C265.616 189.16 265.462 189.202 265.338 189.286C265.214 189.366 265.12 189.474 265.056 189.61C264.996 189.746 264.966 189.892 264.966 190.048H264.48C264.48 189.772 264.538 189.536 264.654 189.34C264.77 189.14 264.928 188.988 265.128 188.884C265.328 188.78 265.554 188.728 265.806 188.728C266.178 188.728 266.482 188.834 266.718 189.046C266.958 189.254 267.078 189.566 267.078 189.982C267.078 190.23 267.016 190.476 266.892 190.72C266.768 190.96 266.61 191.194 266.418 191.422C266.226 191.646 266.02 191.856 265.8 192.052C265.584 192.248 265.382 192.424 265.194 192.58H267.222V193H264.45ZM269.529 193.072C269.157 193.072 268.835 192.982 268.563 192.802C268.295 192.618 268.089 192.364 267.945 192.04C267.801 191.712 267.729 191.332 267.729 190.9C267.729 190.468 267.801 190.09 267.945 189.766C268.089 189.438 268.295 189.184 268.563 189.004C268.835 188.82 269.157 188.728 269.529 188.728C269.901 188.728 270.221 188.82 270.489 189.004C270.757 189.184 270.963 189.438 271.107 189.766C271.251 190.09 271.323 190.468 271.323 190.9C271.323 191.332 271.251 191.712 271.107 192.04C270.963 192.364 270.757 192.618 270.489 192.802C270.221 192.982 269.901 193.072 269.529 193.072ZM269.529 192.628C269.773 192.628 269.991 192.56 270.183 192.424C270.379 192.284 270.531 192.086 270.639 191.83C270.751 191.57 270.807 191.26 270.807 190.9C270.807 190.54 270.751 190.232 270.639 189.976C270.531 189.72 270.379 189.524 270.183 189.388C269.991 189.248 269.773 189.178 269.529 189.178C269.281 189.178 269.061 189.248 268.869 189.388C268.677 189.524 268.525 189.72 268.413 189.976C268.301 190.232 268.245 190.54 268.245 190.9C268.245 191.26 268.301 191.57 268.413 191.83C268.525 192.086 268.677 192.284 268.869 192.424C269.061 192.56 269.281 192.628 269.529 192.628ZM273.689 193.072C273.317 193.072 272.995 192.982 272.723 192.802C272.455 192.618 272.249 192.364 272.105 192.04C271.961 191.712 271.889 191.332 271.889 190.9C271.889 190.468 271.961 190.09 272.105 189.766C272.249 189.438 272.455 189.184 272.723 189.004C272.995 188.82 273.317 188.728 273.689 188.728C274.061 188.728 274.381 188.82 274.649 189.004C274.917 189.184 275.123 189.438 275.267 189.766C275.411 190.09 275.483 190.468 275.483 190.9C275.483 191.332 275.411 191.712 275.267 192.04C275.123 192.364 274.917 192.618 274.649 192.802C274.381 192.982 274.061 193.072 273.689 193.072ZM273.689 192.628C273.933 192.628 274.151 192.56 274.343 192.424C274.539 192.284 274.691 192.086 274.799 191.83C274.911 191.57 274.967 191.26 274.967 190.9C274.967 190.54 274.911 190.232 274.799 189.976C274.691 189.72 274.539 189.524 274.343 189.388C274.151 189.248 273.933 189.178 273.689 189.178C273.441 189.178 273.221 189.248 273.029 189.388C272.837 189.524 272.685 189.72 272.573 189.976C272.461 190.232 272.405 190.54 272.405 190.9C272.405 191.26 272.461 191.57 272.573 191.83C272.685 192.086 272.837 192.284 273.029 192.424C273.221 192.56 273.441 192.628 273.689 192.628ZM277.85 193.072C277.478 193.072 277.156 192.982 276.884 192.802C276.616 192.618 276.41 192.364 276.266 192.04C276.122 191.712 276.05 191.332 276.05 190.9C276.05 190.468 276.122 190.09 276.266 189.766C276.41 189.438 276.616 189.184 276.884 189.004C277.156 188.82 277.478 188.728 277.85 188.728C278.222 188.728 278.542 188.82 278.81 189.004C279.078 189.184 279.284 189.438 279.428 189.766C279.572 190.09 279.644 190.468 279.644 190.9C279.644 191.332 279.572 191.712 279.428 192.04C279.284 192.364 279.078 192.618 278.81 192.802C278.542 192.982 278.222 193.072 277.85 193.072ZM277.85 192.628C278.094 192.628 278.312 192.56 278.504 192.424C278.7 192.284 278.852 192.086 278.96 191.83C279.072 191.57 279.128 191.26 279.128 190.9C279.128 190.54 279.072 190.232 278.96 189.976C278.852 189.72 278.7 189.524 278.504 189.388C278.312 189.248 278.094 189.178 277.85 189.178C277.602 189.178 277.382 189.248 277.19 189.388C276.998 189.524 276.846 189.72 276.734 189.976C276.622 190.232 276.566 190.54 276.566 190.9C276.566 191.26 276.622 191.57 276.734 191.83C276.846 192.086 276.998 192.284 277.19 192.424C277.382 192.56 277.602 192.628 277.85 192.628Z" fill="black"/>
<rect x="300" y="86" width="24" height="95" rx="4" fill="#FFBC47"/>
<path d="M305.748 193.072C305.48 193.072 305.238 193.024 305.022 192.928C304.806 192.828 304.632 192.68 304.5 192.484C304.372 192.288 304.304 192.044 304.296 191.752H304.806C304.81 191.992 304.894 192.2 305.058 192.376C305.222 192.548 305.452 192.634 305.748 192.634C306.044 192.634 306.266 192.552 306.414 192.388C306.566 192.224 306.642 192.026 306.642 191.794C306.642 191.598 306.594 191.438 306.498 191.314C306.406 191.19 306.28 191.098 306.12 191.038C305.964 190.978 305.792 190.948 305.604 190.948H305.292V190.522H305.604C305.876 190.522 306.088 190.46 306.24 190.336C306.396 190.212 306.474 190.038 306.474 189.814C306.474 189.626 306.412 189.472 306.288 189.352C306.168 189.228 305.988 189.166 305.748 189.166C305.516 189.166 305.33 189.236 305.19 189.376C305.05 189.512 304.972 189.684 304.956 189.892H304.446C304.458 189.664 304.518 189.462 304.626 189.286C304.738 189.11 304.89 188.974 305.082 188.878C305.274 188.778 305.496 188.728 305.748 188.728C306.02 188.728 306.246 188.776 306.426 188.872C306.61 188.968 306.748 189.096 306.84 189.256C306.936 189.416 306.984 189.592 306.984 189.784C306.984 189.996 306.926 190.19 306.81 190.366C306.694 190.538 306.52 190.654 306.288 190.714C306.536 190.766 306.742 190.884 306.906 191.068C307.07 191.252 307.152 191.494 307.152 191.794C307.152 192.026 307.098 192.24 306.99 192.436C306.886 192.628 306.73 192.782 306.522 192.898C306.314 193.014 306.056 193.072 305.748 193.072ZM309.605 193.072C309.233 193.072 308.911 192.982 308.639 192.802C308.371 192.618 308.165 192.364 308.021 192.04C307.877 191.712 307.805 191.332 307.805 190.9C307.805 190.468 307.877 190.09 308.021 189.766C308.165 189.438 308.371 189.184 308.639 189.004C308.911 188.82 309.233 188.728 309.605 188.728C309.977 188.728 310.297 188.82 310.565 189.004C310.833 189.184 311.039 189.438 311.183 189.766C311.327 190.09 311.399 190.468 311.399 190.9C311.399 191.332 311.327 191.712 311.183 192.04C311.039 192.364 310.833 192.618 310.565 192.802C310.297 192.982 309.977 193.072 309.605 193.072ZM309.605 192.628C309.849 192.628 310.067 192.56 310.259 192.424C310.455 192.284 310.607 192.086 310.715 191.83C310.827 191.57 310.883 191.26 310.883 190.9C310.883 190.54 310.827 190.232 310.715 189.976C310.607 189.72 310.455 189.524 310.259 189.388C310.067 189.248 309.849 189.178 309.605 189.178C309.357 189.178 309.137 189.248 308.945 189.388C308.753 189.524 308.601 189.72 308.489 189.976C308.377 190.232 308.321 190.54 308.321 190.9C308.321 191.26 308.377 191.57 308.489 191.83C308.601 192.086 308.753 192.284 308.945 192.424C309.137 192.56 309.357 192.628 309.605 192.628ZM313.766 193.072C313.394 193.072 313.072 192.982 312.8 192.802C312.532 192.618 312.326 192.364 312.182 192.04C312.038 191.712 311.966 191.332 311.966 190.9C311.966 190.468 312.038 190.09 312.182 189.766C312.326 189.438 312.532 189.184 312.8 189.004C313.072 188.82 313.394 188.728 313.766 188.728C314.138 188.728 314.458 188.82 314.726 189.004C314.994 189.184 315.2 189.438 315.344 189.766C315.488 190.09 315.56 190.468 315.56 190.9C315.56 191.332 315.488 191.712 315.344 192.04C315.2 192.364 314.994 192.618 314.726 192.802C314.458 192.982 314.138 193.072 313.766 193.072ZM313.766 192.628C314.01 192.628 314.228 192.56 314.42 192.424C314.616 192.284 314.768 192.086 314.876 191.83C314.988 191.57 315.044 191.26 315.044 190.9C315.044 190.54 314.988 190.232 314.876 189.976C314.768 189.72 314.616 189.524 314.42 189.388C314.228 189.248 314.01 189.178 313.766 189.178C313.518 189.178 313.298 189.248 313.106 189.388C312.914 189.524 312.762 189.72 312.65 189.976C312.538 190.232 312.482 190.54 312.482 190.9C312.482 191.26 312.538 191.57 312.65 191.83C312.762 192.086 312.914 192.284 313.106 192.424C313.298 192.56 313.518 192.628 313.766 192.628ZM317.926 193.072C317.554 193.072 317.232 192.982 316.96 192.802C316.692 192.618 316.486 192.364 316.342 192.04C316.198 191.712 316.126 191.332 316.126 190.9C316.126 190.468 316.198 190.09 316.342 189.766C316.486 189.438 316.692 189.184 316.96 189.004C317.232 188.82 317.554 188.728 317.926 188.728C318.298 188.728 318.618 188.82 318.886 189.004C319.154 189.184 319.36 189.438 319.504 189.766C319.648 190.09 319.72 190.468 319.72 190.9C319.72 191.332 319.648 191.712 319.504 192.04C319.36 192.364 319.154 192.618 318.886 192.802C318.618 192.982 318.298 193.072 317.926 193.072ZM317.926 192.628C318.17 192.628 318.388 192.56 318.58 192.424C318.776 192.284 318.928 192.086 319.036 191.83C319.148 191.57 319.204 191.26 319.204 190.9C319.204 190.54 319.148 190.232 319.036 189.976C318.928 189.72 318.776 189.524 318.58 189.388C318.388 189.248 318.17 189.178 317.926 189.178C317.678 189.178 317.458 189.248 317.266 189.388C317.074 189.524 316.922 189.72 316.81 189.976C316.698 190.232 316.642 190.54 316.642 190.9C316.642 191.26 316.698 191.57 316.81 191.83C316.922 192.086 317.074 192.284 317.266 192.424C317.458 192.56 317.678 192.628 317.926 192.628Z" fill="black"/>
<rect x="340" y="71" width="24" height="110" rx="4" fill="#FE5C5C"/>
<path d="M346.289 193V192.1H344.159V191.71L346.199 188.8H346.787V191.656H347.411V192.1H346.787V193H346.289ZM344.717 191.656H346.313V189.358L344.717 191.656ZM349.658 193.072C349.286 193.072 348.964 192.982 348.692 192.802C348.424 192.618 348.218 192.364 348.074 192.04C347.93 191.712 347.858 191.332 347.858 190.9C347.858 190.468 347.93 190.09 348.074 189.766C348.218 189.438 348.424 189.184 348.692 189.004C348.964 188.82 349.286 188.728 349.658 188.728C350.03 188.728 350.35 188.82 350.618 189.004C350.886 189.184 351.092 189.438 351.236 189.766C351.38 190.09 351.452 190.468 351.452 190.9C351.452 191.332 351.38 191.712 351.236 192.04C351.092 192.364 350.886 192.618 350.618 192.802C350.35 192.982 350.03 193.072 349.658 193.072ZM349.658 192.628C349.902 192.628 350.12 192.56 350.312 192.424C350.508 192.284 350.66 192.086 350.768 191.83C350.88 191.57 350.936 191.26 350.936 190.9C350.936 190.54 350.88 190.232 350.768 189.976C350.66 189.72 350.508 189.524 350.312 189.388C350.12 189.248 349.902 189.178 349.658 189.178C349.41 189.178 349.19 189.248 348.998 189.388C348.806 189.524 348.654 189.72 348.542 189.976C348.43 190.232 348.374 190.54 348.374 190.9C348.374 191.26 348.43 191.57 348.542 191.83C348.654 192.086 348.806 192.284 348.998 192.424C349.19 192.56 349.41 192.628 349.658 192.628ZM353.818 193.072C353.446 193.072 353.124 192.982 352.852 192.802C352.584 192.618 352.378 192.364 352.234 192.04C352.09 191.712 352.018 191.332 352.018 190.9C352.018 190.468 352.09 190.09 352.234 189.766C352.378 189.438 352.584 189.184 352.852 189.004C353.124 188.82 353.446 188.728 353.818 188.728C354.19 188.728 354.51 188.82 354.778 189.004C355.046 189.184 355.252 189.438 355.396 189.766C355.54 190.09 355.612 190.468 355.612 190.9C355.612 191.332 355.54 191.712 355.396 192.04C355.252 192.364 355.046 192.618 354.778 192.802C354.51 192.982 354.19 193.072 353.818 193.072ZM353.818 192.628C354.062 192.628 354.28 192.56 354.472 192.424C354.668 192.284 354.82 192.086 354.928 191.83C355.04 191.57 355.096 191.26 355.096 190.9C355.096 190.54 355.04 190.232 354.928 189.976C354.82 189.72 354.668 189.524 354.472 189.388C354.28 189.248 354.062 189.178 353.818 189.178C353.57 189.178 353.35 189.248 353.158 189.388C352.966 189.524 352.814 189.72 352.702 189.976C352.59 190.232 352.534 190.54 352.534 190.9C352.534 191.26 352.59 191.57 352.702 191.83C352.814 192.086 352.966 192.284 353.158 192.424C353.35 192.56 353.57 192.628 353.818 192.628ZM357.978 193.072C357.606 193.072 357.284 192.982 357.012 192.802C356.744 192.618 356.538 192.364 356.394 192.04C356.25 191.712 356.178 191.332 356.178 190.9C356.178 190.468 356.25 190.09 356.394 189.766C356.538 189.438 356.744 189.184 357.012 189.004C357.284 188.82 357.606 188.728 357.978 188.728C358.35 188.728 358.67 188.82 358.938 189.004C359.206 189.184 359.412 189.438 359.556 189.766C359.7 190.09 359.772 190.468 359.772 190.9C359.772 191.332 359.7 191.712 359.556 192.04C359.412 192.364 359.206 192.618 358.938 192.802C358.67 192.982 358.35 193.072 357.978 193.072ZM357.978 192.628C358.222 192.628 358.44 192.56 358.632 192.424C358.828 192.284 358.98 192.086 359.088 191.83C359.2 191.57 359.256 191.26 359.256 190.9C359.256 190.54 359.2 190.232 359.088 189.976C358.98 189.72 358.828 189.524 358.632 189.388C358.44 189.248 358.222 189.178 357.978 189.178C357.73 189.178 357.51 189.248 357.318 189.388C357.126 189.524 356.974 189.72 356.862 189.976C356.75 190.232 356.694 190.54 356.694 190.9C356.694 191.26 356.75 191.57 356.862 191.83C356.974 192.086 357.126 192.284 357.318 192.424C357.51 192.56 357.73 192.628 357.978 192.628Z" fill="black"/>
<rect x="380" y="46" width="24" height="135" rx="4" fill="url(#paint8_linear_1_67)"/>
<path d="M385.795 193.072C385.507 193.072 385.257 193.02 385.045 192.916C384.833 192.812 384.663 192.67 384.535 192.49C384.411 192.306 384.335 192.098 384.307 191.866H384.799C384.847 192.098 384.959 192.286 385.135 192.43C385.311 192.57 385.533 192.64 385.801 192.64C386.001 192.64 386.173 192.594 386.317 192.502C386.461 192.406 386.571 192.278 386.647 192.118C386.727 191.958 386.767 191.78 386.767 191.584C386.767 191.272 386.679 191.02 386.503 190.828C386.327 190.636 386.099 190.54 385.819 190.54C385.587 190.54 385.389 190.592 385.225 190.696C385.061 190.8 384.941 190.936 384.865 191.104H384.385L384.745 188.8H386.947V189.238H385.135L384.889 190.516C384.985 190.4 385.117 190.304 385.285 190.228C385.457 190.152 385.653 190.114 385.873 190.114C386.149 190.114 386.389 190.178 386.593 190.306C386.801 190.434 386.963 190.608 387.079 190.828C387.195 191.048 387.253 191.298 387.253 191.578C387.253 191.846 387.195 192.094 387.079 192.322C386.967 192.55 386.801 192.732 386.581 192.868C386.365 193.004 386.103 193.072 385.795 193.072ZM389.679 193.072C389.307 193.072 388.985 192.982 388.713 192.802C388.445 192.618 388.239 192.364 388.095 192.04C387.951 191.712 387.879 191.332 387.879 190.9C387.879 190.468 387.951 190.09 388.095 189.766C388.239 189.438 388.445 189.184 388.713 189.004C388.985 188.82 389.307 188.728 389.679 188.728C390.051 188.728 390.371 188.82 390.639 189.004C390.907 189.184 391.113 189.438 391.257 189.766C391.401 190.09 391.473 190.468 391.473 190.9C391.473 191.332 391.401 191.712 391.257 192.04C391.113 192.364 390.907 192.618 390.639 192.802C390.371 192.982 390.051 193.072 389.679 193.072ZM389.679 192.628C389.923 192.628 390.141 192.56 390.333 192.424C390.529 192.284 390.681 192.086 390.789 191.83C390.901 191.57 390.957 191.26 390.957 190.9C390.957 190.54 390.901 190.232 390.789 189.976C390.681 189.72 390.529 189.524 390.333 189.388C390.141 189.248 389.923 189.178 389.679 189.178C389.431 189.178 389.211 189.248 389.019 189.388C388.827 189.524 388.675 189.72 388.563 189.976C388.451 190.232 388.395 190.54 388.395 190.9C388.395 191.26 388.451 191.57 388.563 191.83C388.675 192.086 388.827 192.284 389.019 192.424C389.211 192.56 389.431 192.628 389.679 192.628ZM393.839 193.072C393.467 193.072 393.145 192.982 392.873 192.802C392.605 192.618 392.399 192.364 392.255 192.04C392.111 191.712 392.039 191.332 392.039 190.9C392.039 190.468 392.111 190.09 392.255 189.766C392.399 189.438 392.605 189.184 392.873 189.004C393.145 188.82 393.467 188.728 393.839 188.728C394.211 188.728 394.531 188.82 394.799 189.004C395.067 189.184 395.273 189.438 395.417 189.766C395.561 190.09 395.633 190.468 395.633 190.9C395.633 191.332 395.561 191.712 395.417 192.04C395.273 192.364 395.067 192.618 394.799 192.802C394.531 192.982 394.211 193.072 393.839 193.072ZM393.839 192.628C394.083 192.628 394.301 192.56 394.493 192.424C394.689 192.284 394.841 192.086 394.949 191.83C395.061 191.57 395.117 191.26 395.117 190.9C395.117 190.54 395.061 190.232 394.949 189.976C394.841 189.72 394.689 189.524 394.493 189.388C394.301 189.248 394.083 189.178 393.839 189.178C393.591 189.178 393.371 189.248 393.179 189.388C392.987 189.524 392.835 189.72 392.723 189.976C392.611 190.232 392.555 190.54 392.555 190.9C392.555 191.26 392.611 191.57 392.723 191.83C392.835 192.086 392.987 192.284 393.179 192.424C393.371 192.56 393.591 192.628 393.839 192.628ZM397.999 193.072C397.627 193.072 397.305 192.982 397.033 192.802C396.765 192.618 396.559 192.364 396.415 192.04C396.271 191.712 396.199 191.332 396.199 190.9C396.199 190.468 396.271 190.09 396.415 189.766C396.559 189.438 396.765 189.184 397.033 189.004C397.305 188.82 397.627 188.728 397.999 188.728C398.371 188.728 398.691 188.82 398.959 189.004C399.227 189.184 399.433 189.438 399.577 189.766C399.721 190.09 399.793 190.468 399.793 190.9C399.793 191.332 399.721 191.712 399.577 192.04C399.433 192.364 399.227 192.618 398.959 192.802C398.691 192.982 398.371 193.072 397.999 193.072ZM397.999 192.628C398.243 192.628 398.461 192.56 398.653 192.424C398.849 192.284 399.001 192.086 399.109 191.83C399.221 191.57 399.277 191.26 399.277 190.9C399.277 190.54 399.221 190.232 399.109 189.976C399.001 189.72 398.849 189.524 398.653 189.388C398.461 189.248 398.243 189.178 397.999 189.178C397.751 189.178 397.531 189.248 397.339 189.388C397.147 189.524 396.995 189.72 396.883 189.976C396.771 190.232 396.715 190.54 396.715 190.9C396.715 191.26 396.771 191.57 396.883 191.83C396.995 192.086 397.147 192.284 397.339 192.424C397.531 192.56 397.751 192.628 397.999 192.628Z" fill="black"/>
</g>
<defs>
<filter id="filter0_d_1_67" x="95" y="103" width="70" height="70" filterUnits="userSpaceOnUse" color-interpolation-filters="sRGB">
<feFlood flood-opacity="0" result="BackgroundImageFix"/>
<feColorMatrix in="SourceAlpha" type="matrix" values="0 0 0 0 0 0 0 0 0 0 0 0 0 0 0 0 0 0 127 0" result="hardAlpha"/>
<feOffset dy="10"/>
<feGaussianBlur stdDeviation="10"/>
<feComposite in2="hardAlpha" operator="out"/>
<feColorMatrix type="matrix" values="0 0 0 0 0 0 0 0 0 0 0 0 0 0 0 0 0 0 0.1 0"/>
<feBlend mode="normal" in2="BackgroundImageFix" result="effect1_dropShadow_1_67"/>
<feBlend mode="normal" in="SourceGraphic" in2="effect1_dropShadow_1_67" result="shape"/>
</filter>
<filter id="filter1_d_1_67" x="286" y="254" width="82.3185" height="82.3185" filterUnits="userSpaceOnUse" color-interpolation-filters="sRGB">
<feFlood flood-opacity="0" result="BackgroundImageFix"/>
<feColorMatrix in="SourceAlpha" type="matrix" values="0 0 0 0 0 0 0 0 0 0 0 0 0 0 0 0 0 0 127 0" result="hardAlpha"/>
<feOffset dy="10"/>
<feGaussianBlur stdDeviation="10"/>
<feComposite in2="hardAlpha" operator="out"/>
<feColorMatrix type="matrix" values="0 0 0 0 0 0 0 0 0 0 0 0 0 0 0 0 0 0 0.1 0"/>
<feBlend mode="normal" in2="BackgroundImageFix" result="effect1_dropShadow_1_67"/>
<feBlend mode="normal" in="SourceGraphic" in2="effect1_dropShadow_1_67" result="shape"/>
</filter>
<filter id="filter2_d_1_67" x="0" y="182" width="282" height="228" filterUnits="userSpaceOnUse" color-interpolation-filters="sRGB">
<feFlood flood-opacity="0" result="BackgroundImageFix"/>
<feColorMatrix in="SourceAlpha" type="matrix" values="0 0 0 0 0 0 0 0 0 0 0 0 0 0 0 0 0 0 127 0" result="hardAlpha"/>
<feOffset dy="10"/>
<feGaussianBlur stdDeviation="10"/>
<feComposite in2="hardAlpha" operator="out"/>
<feColorMatrix type="matrix" values="0 0 0 0 0 0 0 0 0 0 0 0 0 0 0 0 0 0 0.1 0"/>
<feBlend mode="normal" in2="BackgroundImageFix" result="effect1_dropShadow_1_67"/>
<feBlend mode="normal" in="SourceGraphic" in2="effect1_dropShadow_1_67" result="shape"/>
</filter>
<filter id="filter3_d_1_67" x="176" y="0" width="272" height="247" filterUnits="userSpaceOnUse" color-interpolation-filters="sRGB">
<feFlood flood-opacity="0" result="BackgroundImageFix"/>
<feColorMatrix in="SourceAlpha" type="matrix" values="0 0 0 0 0 0 0 0 0 0 0 0 0 0 0 0 0 0 127 0" result="hardAlpha"/>
<feOffset dy="10"/>
<feGaussianBlur stdDeviation="10"/>
<feComposite in2="hardAlpha" operator="out"/>
<feColorMatrix type="matrix" values="0 0 0 0 0 0 0 0 0 0 0 0 0 0 0 0 0 0 0.1 0"/>
<feBlend mode="normal" in2="BackgroundImageFix" result="effect1_dropShadow_1_67"/>
<feBlend mode="normal" in="SourceGraphic" in2="effect1_dropShadow_1_67" result="shape"/>
</filter>
<linearGradient id="paint0_linear_1_67" x1="115" y1="113" x2="150.595" y2="122.915" gradientUnits="userSpaceOnUse">
<stop stop-color="#FE5C5C"/>
<stop offset="1" stop-color="#FFBC47"/>
</linearGradient>
<linearGradient id="paint1_linear_1_67" x1="325.647" y1="264" x2="361.242" y2="273.915" gradientUnits="userSpaceOnUse">
<stop stop-color="#FE5C5C"/>
<stop offset="1" stop-color="#FFBC47"/>
</linearGradient>
<linearGradient id="paint2_linear_1_67" x1="181.937" y1="271.594" x2="179.708" y2="386.823" gradientUnits="userSpaceOnUse">
<stop stop-color="#EE2C2C" stop-opacity="0.08"/>
<stop offset="1" stop-color="white" stop-opacity="0"/>
</linearGradient>
<linearGradient id="paint3_linear_1_67" x1="36" y1="246" x2="207.139" y2="372.511" gradientUnits="userSpaceOnUse">
<stop stop-color="#FE5C5C"/>
<stop offset="1" stop-color="#FFBC47"/>
</linearGradient>
<linearGradient id="paint4_linear_1_67" x1="53" y1="281" x2="66.0514" y2="284.635" gradientUnits="userSpaceOnUse">
<stop stop-color="#FE5C5C"/>
<stop offset="1" stop-color="#FFBC47"/>
</linearGradient>
<linearGradient id="paint5_linear_1_67" x1="55" y1="283" x2="63.3054" y2="285.313" gradientUnits="userSpaceOnUse">
<stop stop-color="#FE5C5C"/>
<stop offset="1" stop-color="#FFBC47"/>
</linearGradient>
<linearGradient id="paint6_linear_1_67" x1="209" y1="317" x2="222.051" y2="320.635" gradientUnits="userSpaceOnUse">
<stop stop-color="#FE5C5C"/>
<stop offset="1" stop-color="#FFBC47"/>
</linearGradient>
<linearGradient id="paint7_linear_1_67" x1="211" y1="319" x2="219.305" y2="321.313" gradientUnits="userSpaceOnUse">
<stop stop-color="#FE5C5C"/>
<stop offset="1" stop-color="#FFBC47"/>
</linearGradient>
<linearGradient id="paint8_linear_1_67" x1="380" y1="46" x2="410.61" y2="47.5158" gradientUnits="userSpaceOnUse">
<stop stop-color="#FE5C5C"/>
<stop offset="1" stop-color="#FFBC47"/>
</linearGradient>
<clipPath id="clip0_1_67">
<rect width="207" height="120" fill="white" transform="translate(36 226)"/>
</clipPath>
</defs>
</svg>
