<svg width="81" height="80" viewBox="0 0 81 80" fill="none" xmlns="http://www.w3.org/2000/svg">
<rect x="0.5" width="80" height="80" rx="40" fill="url(#paint0_linear_1_255)"/>
<path d="M40.7072 47.2304C41.1371 47.2304 41.5493 47.4011 41.8533 47.7051C42.1572 48.009 42.328 48.4212 42.328 48.8511C42.328 49.2809 42.1572 49.6932 41.8533 49.9971C41.5493 50.3011 41.1371 50.4718 40.7072 50.4718V47.2304ZM38.006 44.5292C38.006 44.959 38.1768 45.3712 38.4807 45.6752C38.7847 45.9791 39.1969 46.1499 39.6268 46.1499V42.9084C39.1969 42.9084 38.7847 43.0792 38.4807 43.3831C38.1768 43.6871 38.006 44.0993 38.006 44.5292ZM48.8109 46.6901C48.8127 48.1725 48.4332 49.6304 47.709 50.9238C46.9848 52.2172 45.9401 53.3026 44.6753 54.0758C43.4106 54.8489 41.9682 55.2838 40.4869 55.3386C39.0055 55.3935 37.535 55.0665 36.2165 54.389C34.898 53.7115 33.7759 52.7063 32.958 51.4701C32.1401 50.2338 31.6539 48.8079 31.546 47.3295C31.4382 45.851 31.7124 44.3697 32.3423 43.0278C32.9721 41.686 33.9365 40.5286 35.1428 39.667H45.1912C46.3058 40.4691 47.2148 41.5235 47.8439 42.7442C48.473 43.9648 48.8044 45.3169 48.8109 46.6901ZM43.4084 44.5292C43.4084 43.8128 43.1238 43.1257 42.6173 42.6191C42.1107 42.1125 41.4236 41.828 40.7072 41.828V41.2877C40.7072 41.1444 40.6503 41.007 40.549 40.9057C40.4477 40.8044 40.3103 40.7475 40.167 40.7475C40.0237 40.7475 39.8863 40.8044 39.785 40.9057C39.6837 41.007 39.6268 41.1444 39.6268 41.2877V41.828C38.9103 41.828 38.2233 42.1125 37.7167 42.6191C37.2101 43.1257 36.9255 43.8128 36.9255 44.5292C36.9255 45.2456 37.2101 45.9326 37.7167 46.4392C38.2233 46.9458 38.9103 47.2304 39.6268 47.2304V50.4718C39.1969 50.4718 38.7847 50.3011 38.4807 49.9971C38.1768 49.6932 38.006 49.2809 38.006 48.8511V48.3109C38.006 48.1676 37.9491 48.0302 37.8478 47.9288C37.7465 47.8275 37.6091 47.7706 37.4658 47.7706C37.3225 47.7706 37.1851 47.8275 37.0838 47.9288C36.9825 48.0302 36.9255 48.1676 36.9255 48.3109V48.8511C36.9255 49.5675 37.2101 50.2546 37.7167 50.7611C38.2233 51.2677 38.9103 51.5523 39.6268 51.5523V52.0925C39.6268 52.2358 39.6837 52.3732 39.785 52.4745C39.8863 52.5759 40.0237 52.6328 40.167 52.6328C40.3103 52.6328 40.4477 52.5759 40.549 52.4745C40.6503 52.3732 40.7072 52.2358 40.7072 52.0925V51.5523C41.4236 51.5523 42.1107 51.2677 42.6173 50.7611C43.1238 50.2546 43.4084 49.5675 43.4084 48.8511C43.4084 48.1347 43.1238 47.4476 42.6173 46.9411C42.1107 46.4345 41.4236 46.1499 40.7072 46.1499V42.9084C41.1371 42.9084 41.5493 43.0792 41.8533 43.3831C42.1572 43.6871 42.328 44.0993 42.328 44.5292V45.1072C42.328 45.2505 42.3849 45.3879 42.4862 45.4892C42.5875 45.5905 42.7249 45.6475 42.8682 45.6475C43.0115 45.6475 43.1489 45.5905 43.2502 45.4892C43.3515 45.3879 43.4084 45.2505 43.4084 45.1072V44.5292ZM24.5 52.0925C24.5 52.2358 24.5569 52.3732 24.6582 52.4745C24.7595 52.5759 24.897 52.6328 25.0402 52.6328H32.4848C31.0097 50.7367 30.2913 48.3604 30.469 45.9647C30.6467 43.569 31.7077 41.3247 33.4464 39.667H30.9829C30.8396 39.667 30.7022 39.6101 30.6009 39.5088C30.4996 39.4074 30.4427 39.27 30.4427 39.1268C30.4427 38.9835 30.4996 38.8461 30.6009 38.7447C30.7022 38.6434 30.8396 38.5865 30.9829 38.5865H49.3511C49.4944 38.5865 49.6318 38.6434 49.7331 38.7447C49.8344 38.8461 49.8913 38.9835 49.8913 39.1268C49.8913 39.27 49.8344 39.4074 49.7331 39.5088C49.6318 39.6101 49.4944 39.667 49.3511 39.667H46.8876C48.6262 41.3247 49.6873 43.569 49.865 45.9647C50.0427 48.3604 49.3243 50.7367 47.8492 52.6328H55.2937C55.437 52.6328 55.5744 52.5759 55.6758 52.4745C55.7771 52.3732 55.834 52.2358 55.834 52.0925V32.6439H24.5V52.0925ZM52.0523 26.161H49.8913V24.5402C49.8913 24.397 49.8344 24.2595 49.7331 24.1582C49.6318 24.0569 49.4944 24 49.3511 24C49.2078 24 49.0704 24.0569 48.9691 24.1582C48.8678 24.2595 48.8109 24.397 48.8109 24.5402V26.161H40.7072V24.5402C40.7072 24.397 40.6503 24.2595 40.549 24.1582C40.4477 24.0569 40.3103 24 40.167 24C40.0237 24 39.8863 24.0569 39.785 24.1582C39.6837 24.2595 39.6268 24.397 39.6268 24.5402V26.161H31.5231V24.5402C31.5231 24.397 31.4662 24.2595 31.3649 24.1582C31.2636 24.0569 31.1262 24 30.9829 24C30.8396 24 30.7022 24.0569 30.6009 24.1582C30.4996 24.2595 30.4427 24.397 30.4427 24.5402V26.161H28.2817C27.2787 26.161 26.3168 26.5594 25.6076 27.2686C24.8984 27.9778 24.5 28.9397 24.5 29.9427V31.5634H55.834V29.9427C55.834 28.9397 55.4356 27.9778 54.7264 27.2686C54.0171 26.5594 53.0553 26.161 52.0523 26.161Z" fill="white"/>
<defs>
<linearGradient id="paint0_linear_1_255" x1="0.5" y1="0" x2="95.4192" y2="26.4397" gradientUnits="userSpaceOnUse">
<stop stop-color="#FE5C5C"/>
<stop offset="1" stop-color="#FFBC47"/>
</linearGradient>
</defs>
</svg>
