<svg width="81" height="80" viewBox="0 0 81 80" fill="none" xmlns="http://www.w3.org/2000/svg">
<rect x="0.5" width="80" height="80" rx="40" fill="url(#paint0_linear_1_194)"/>
<path d="M41.7291 25.304C41.6336 25.2077 41.5199 25.1312 41.3947 25.079C41.2694 25.0269 41.1351 25 40.9994 25C40.8638 25 40.7294 25.0269 40.6042 25.079C40.479 25.1312 40.3653 25.2077 40.2697 25.304L33.9594 31.6246C33.9433 31.0903 33.7197 30.5831 33.336 30.2109C32.9522 29.8386 32.4385 29.6306 31.9039 29.6308H29.6942C29.1491 29.6308 28.6263 29.8474 28.2408 30.2329C27.8553 30.6183 27.6387 31.1412 27.6387 31.6863V37.9453L22.7981 42.7757C22.7028 42.8717 22.6275 42.9856 22.5763 43.1108C22.5252 43.236 22.4992 43.3701 22.5 43.5054V50.1857C22.501 50.3886 22.5621 50.5867 22.6755 50.755C22.7889 50.9232 22.9495 51.0542 23.1372 51.1313C23.3166 51.2207 23.5183 51.2556 23.7173 51.2319C23.9164 51.2082 24.1041 51.1267 24.2575 50.9977L40.9994 34.2043L57.7414 50.9977C57.8876 51.1455 58.0751 51.2455 58.2793 51.2845C58.4835 51.3235 58.6947 51.2997 58.8851 51.2162C59.0754 51.1328 59.236 50.9935 59.3456 50.8169C59.4552 50.6402 59.5086 50.4345 59.4989 50.2268V43.5465C59.4996 43.4112 59.4737 43.2772 59.4226 43.1519C59.3714 43.0267 59.2961 42.9128 59.2008 42.8168L41.7291 25.304Z" fill="white"/>
<path d="M43.0536 54.3375C43.8713 54.3375 44.6556 54.0127 45.2338 53.4345C45.812 52.8562 46.1368 52.072 46.1368 51.2543V47.1433C46.1368 46.3256 45.812 45.5413 45.2338 44.9631C44.6556 44.3849 43.8713 44.0601 43.0536 44.0601H38.9426C38.1249 44.0601 37.3407 44.3849 36.7624 44.9631C36.1842 45.5413 35.8594 46.3256 35.8594 47.1433V51.2543C35.8594 52.072 36.1842 52.8562 36.7624 53.4345C37.3407 54.0127 38.1249 54.3375 38.9426 54.3375H43.0536ZM37.9149 51.2543V47.1433C37.9149 46.8707 38.0231 46.6093 38.2159 46.4166C38.4086 46.2238 38.67 46.1156 38.9426 46.1156H43.0536C43.3262 46.1156 43.5876 46.2238 43.7803 46.4166C43.9731 46.6093 44.0813 46.8707 44.0813 47.1433V51.2543C44.0813 51.5269 43.9731 51.7883 43.7803 51.981C43.5876 52.1737 43.3262 52.282 43.0536 52.282H38.9426C38.67 52.282 38.4086 52.1737 38.2159 51.981C38.0231 51.7883 37.9149 51.5269 37.9149 51.2543Z" fill="white"/>
<defs>
<linearGradient id="paint0_linear_1_194" x1="0.5" y1="0" x2="95.4192" y2="26.4397" gradientUnits="userSpaceOnUse">
<stop stop-color="#FE5C5C"/>
<stop offset="1" stop-color="#FFBC47"/>
</linearGradient>
</defs>
</svg>
