<svg width="81" height="80" viewBox="0 0 81 80" fill="none" xmlns="http://www.w3.org/2000/svg">
<rect x="0.5" width="80" height="80" rx="40" fill="url(#paint0_linear_1_249)"/>
<path fill-rule="evenodd" clip-rule="evenodd" d="M51.7854 51.1886C53.4772 51.1886 54.8947 52.4413 55.1286 54.0945H57.2946C57.4072 54.0945 57.4998 54.0013 57.4998 53.8888V51.3257C57.4998 50.2472 56.7372 49.46 55.6871 48.8925C53.9277 47.9409 51.4057 47.5992 50.0286 47.5185C49.9259 47.5129 49.8325 47.475 49.7577 47.4151C40.0733 40.4126 35.6535 42.4734 31.2908 44.508C29.2348 45.4668 27.1904 46.4203 24.6208 46.5105C24.5293 46.5135 24.4625 46.5647 24.4337 46.6529C24.1163 47.6307 24.0653 48.683 24.1862 49.7422C24.2017 49.8767 24.1594 50.0048 24.0797 50.1017C24.0064 50.1904 23.5314 50.7495 23.5125 50.8026C23.4909 50.862 23.5034 52.4819 23.5034 52.6872C23.5034 52.7542 23.5196 52.7936 23.5684 52.8387L24.8328 54.0385C24.8766 54.0809 24.9133 54.0945 24.9756 54.0945H28.5935C28.8274 52.4413 30.2449 51.1886 31.9366 51.1886C33.6284 51.1886 35.0459 52.4413 35.2798 54.0945H48.4427C48.6766 52.4413 50.0936 51.1886 51.7854 51.1886ZM53.4972 52.8577C54.4423 53.8055 54.4423 55.342 53.4972 56.2894C52.5522 57.2369 51.0191 57.2369 50.074 56.2894C49.1289 55.342 49.1289 53.8051 50.074 52.8577C51.0191 51.9102 52.5522 51.9102 53.4972 52.8577ZM33.6481 52.8577C34.5932 53.8055 34.5932 55.342 33.6481 56.2894C32.703 57.2369 31.1699 57.2369 30.2248 56.2894C29.2797 55.342 29.2797 53.8051 30.2248 52.8577C31.1699 51.9102 32.703 51.9102 33.6481 52.8577ZM37.8199 43.7568L37.9027 43.7549C38.8429 43.7356 39.7819 43.8443 40.7584 44.0762C42.0538 44.3842 43.3495 44.8933 44.606 45.5168C45.8371 46.1275 47.0313 46.8492 48.1513 47.5977C48.6002 47.872 48.3848 48.4963 47.9197 48.4963H29.9112V48.4951C29.5068 48.4951 29.2835 48.0163 29.5488 47.7064C31.589 45.3229 34.7972 43.844 37.8196 43.7572L37.8199 43.7568ZM38.3512 44.7107C41.1026 44.7823 43.9273 46.104 46.2849 47.5375H38.3512V44.7107ZM37.3952 47.5375H31.0346C32.7642 45.9347 35.1366 44.9122 37.3952 44.7357V47.5375ZM39.2442 31.3678L42.0394 28.5657C42.9305 27.6724 44.4756 28.299 44.4756 29.5775C44.4756 29.9438 44.3366 30.3109 44.0584 30.5893L40.1409 34.5166C39.6466 35.0121 38.8421 35.0121 38.3478 34.5166L36.1338 32.2971C35.2428 31.4038 35.8678 29.8548 37.1435 29.8548C37.5089 29.8548 37.8751 29.9942 38.1529 30.273L39.2442 31.3671V31.3678ZM42.7154 29.2434L39.5824 32.3842C39.3957 32.5713 39.093 32.5713 38.9064 32.3842L37.4768 30.9511C37.1866 30.6602 36.6727 30.8579 36.6727 31.2856C36.6727 31.4072 36.7184 31.5284 36.8095 31.6201L39.0235 33.8396C39.1444 33.9609 39.3436 33.9609 39.4645 33.8396L43.382 29.9124C43.6719 29.6218 43.475 29.1062 43.0484 29.1062C42.9271 29.1062 42.8061 29.1521 42.7147 29.2434H42.7154ZM40.0903 37.8964C42.6108 36.6463 45.2427 34.0211 45.2427 31.0166H45.2446V27.7482C43.4693 27.1189 41.7276 26.3325 40.0963 25.3885C38.4657 26.3317 36.7241 27.1186 34.9495 27.7474V30.8401C34.9495 33.9465 37.453 36.602 40.0903 37.8964ZM44.569 35.4421C45.5583 34.14 46.1988 32.6244 46.1988 31.0166H46.1969V27.408C46.1969 27.1981 46.0616 27.0197 45.8734 26.9557V26.9549C43.9402 26.2916 42.0984 25.465 40.3385 24.4229C40.1813 24.3297 39.9928 24.3372 39.8469 24.4263C38.1767 25.4309 36.1625 26.3249 34.3181 26.9549C34.1193 27.0223 33.9939 27.2083 33.9939 27.408H33.9931V30.8405C33.9931 34.4064 36.8378 37.4464 39.8904 38.8605C40.0332 38.9265 40.1919 38.9159 40.32 38.8454C41.8977 38.1003 43.4572 36.9047 44.5686 35.4421H44.569ZM40.094 40.0989C43.7153 38.7086 47.2803 35.1572 47.2803 31.0398H47.2822V26.2715C44.7519 25.5142 42.3149 24.4479 40.0963 23C37.8785 24.4475 35.4419 25.5139 32.9123 26.2708V30.87C32.9123 35.0913 36.3511 38.6719 40.094 40.0985V40.0989Z" fill="white"/>
<defs>
<linearGradient id="paint0_linear_1_249" x1="0.5" y1="0" x2="95.4192" y2="26.4397" gradientUnits="userSpaceOnUse">
<stop stop-color="#FE5C5C"/>
<stop offset="1" stop-color="#FFBC47"/>
</linearGradient>
</defs>
</svg>
