<svg width="81" height="80" viewBox="0 0 81 80" fill="none" xmlns="http://www.w3.org/2000/svg">
<rect x="0.5" width="80" height="80" rx="40" fill="url(#paint0_linear_1_242)"/>
<path d="M21.5 34.4444V54.8519H32.0556V34.4444H21.5ZM24.8285 52.037H22.9074V49.9259H24.8285V52.037ZM24.8285 48.5185H22.9074V46.4074H24.8285V48.5185ZM24.8285 45H22.9074V42.8889H24.8285V45ZM24.8285 41.4815H22.9074V39.3704H24.8285V41.4815ZM24.8285 37.963H22.9074V35.8519H24.8285V37.963ZM27.6433 52.037H25.7222V49.9259H27.6433V52.037ZM27.6433 48.5185H25.7222V46.4074H27.6433V48.5185ZM27.6433 45H25.7222V42.8889H27.6433V45ZM27.6433 41.4815H25.7222V39.3704H27.6433V41.4815ZM27.6433 37.963H25.7222V35.8519H27.6433V37.963ZM30.4581 52.037H28.537V49.9259H30.4581V52.037ZM30.4581 48.5185H28.537V46.4074H30.4581V48.5185ZM30.4581 45H28.537V42.8889H30.4581V45ZM30.4581 41.4815H28.537V39.3704H30.4581V41.4815ZM30.4581 37.963H28.537V35.8519H30.4581V37.963ZM48.9444 34.4444V54.8519H59.5V34.4444H48.9444ZM52.463 52.037H50.5419V49.9259H52.463V52.037ZM52.463 48.5185H50.5419V46.4074H52.463V48.5185ZM52.463 45H50.5419V42.8889H52.463V45ZM52.463 41.4815H50.5419V39.3704H52.463V41.4815ZM52.463 37.963H50.5419V35.8519H52.463V37.963ZM55.2778 52.037H53.3567V49.9259H55.2778V52.037ZM55.2778 48.5185H53.3567V46.4074H55.2778V48.5185ZM55.2778 45H53.3567V42.8889H55.2778V45ZM55.2778 41.4815H53.3567V39.3704H55.2778V41.4815ZM55.2778 37.963H53.3567V35.8519H55.2778V37.963ZM58.0926 52.037H56.1715V49.9259H58.0926V52.037ZM58.0926 48.5185H56.1715V46.4074H58.0926V48.5185ZM58.0926 45H56.1715V42.8889H58.0926V45ZM58.0926 41.4815H56.1715V39.3704H58.0926V41.4815ZM58.0926 37.963H56.1715V35.8519H58.0926V37.963ZM32.7593 26V54.8519H36.9815V47.1111H44.0185V54.8519H48.2407V26H32.7593ZM36.9815 45H34.8704V42.8889H36.9815V45ZM36.9815 41.4815H34.8704V39.3704H36.9815V41.4815ZM36.9815 37.963H34.8704V35.8519H36.9815V37.963ZM38.3889 29.1667H39.7963V27.4074H41.2037V29.1667H42.6111V30.5741H41.2037V32.3333H39.7963V30.5741H38.3889V29.1667ZM40.0144 45H37.9033V42.8889H40.0144V45ZM40.0144 41.4815H37.9033V39.3704H40.0144V41.4815ZM40.0144 37.963H37.9033V35.8519H40.0144V37.963ZM43.0685 45H40.9574V42.8889H43.0685V45ZM43.0685 41.4815H40.9574V39.3704H43.0685V41.4815ZM43.0685 37.963H40.9574V35.8519H43.0685V37.963ZM46.1296 45H44.0185V42.8889H46.1296V45ZM46.1296 41.4815H44.0185V39.3704H46.1296V41.4815ZM46.1296 37.963H44.0185V35.8519H46.1296V37.963Z" fill="white"/>
<defs>
<linearGradient id="paint0_linear_1_242" x1="0.5" y1="0" x2="95.4192" y2="26.4397" gradientUnits="userSpaceOnUse">
<stop stop-color="#FE5C5C"/>
<stop offset="1" stop-color="#FFBC47"/>
</linearGradient>
</defs>
</svg>
