<svg width="81" height="80" viewBox="0 0 81 80" fill="none" xmlns="http://www.w3.org/2000/svg">
<rect x="0.5" width="80" height="80" rx="40" fill="url(#paint0_linear_1_226)"/>
<path d="M35.9495 45.7201C35.5774 46.2935 35.3542 46.9506 35.3001 47.6319C35.2459 48.3133 35.3624 48.9974 35.6391 49.6224C35.9158 50.2473 36.3439 50.7935 36.8848 51.2114C37.4257 51.6292 38.0622 51.9057 38.7368 52.0157H38.7974L40.1144 45.9486C38.8539 45.849 37.6583 45.3487 36.7025 44.521L35.9495 45.7201Z" fill="white"/>
<path d="M41.006 45.9631L41.3022 47.3193C41.4429 47.989 41.7485 48.613 42.1912 49.1349C42.634 49.6567 43.1999 50.0599 43.8377 50.308C44.4755 50.556 45.1651 50.6411 45.8441 50.5554C46.523 50.4698 47.1699 50.2162 47.7262 49.8175L47.7726 49.7818L44.4178 44.5641C43.4583 45.3815 42.2631 45.8716 41.006 45.9631Z" fill="white"/>
<path d="M46.4635 39.6138L47.8196 39.3176C48.4894 39.1768 49.1134 38.8712 49.6353 38.4285C50.1571 37.9858 50.5603 37.4199 50.8084 36.7821C51.0564 36.1443 51.1414 35.4547 51.0558 34.7757C50.9702 34.0967 50.7165 33.4498 50.3179 32.8936L50.2822 32.8472L45.0645 36.2019C45.8819 37.1614 46.372 38.3566 46.4635 39.6138Z" fill="white"/>
<path d="M36.0697 36.202L34.8991 35.449C34.3257 35.077 33.6686 34.8538 32.9873 34.7996C32.3059 34.7454 31.6218 34.8619 30.9968 35.1386C30.3719 35.4153 29.8257 35.8435 29.4079 36.3843C28.99 36.9252 28.7135 37.5617 28.6035 38.2363V38.297L34.6706 39.6139C34.7622 38.3567 35.2522 37.1615 36.0697 36.202Z" fill="white"/>
<path d="M34.6579 40.5063L33.3017 40.8026C32.632 40.9433 32.008 41.2489 31.4861 41.6916C30.9642 42.1344 30.561 42.7002 30.313 43.3381C30.065 43.9759 29.9799 44.6655 30.0656 45.3445C30.1512 46.0234 30.4048 46.6703 30.8035 47.2266L30.8392 47.273L36.0569 43.9182C35.2395 42.9587 34.7494 41.7635 34.6579 40.5063Z" fill="white"/>
<path d="M45.0508 43.9182L46.2214 44.6713C46.7948 45.0433 47.4518 45.2665 48.1332 45.3207C48.8145 45.3748 49.4986 45.2583 50.1236 44.9816C50.7486 44.7049 51.2947 44.2768 51.7126 43.7359C52.1305 43.195 52.4069 42.5585 52.5169 41.8839V41.8233L46.4498 40.5063C46.3583 41.7635 45.8682 42.9587 45.0508 43.9182Z" fill="white"/>
<path d="M40.1143 34.1569L39.8181 32.8007C39.6773 32.131 39.3717 31.507 38.929 30.9851C38.4863 30.4633 37.9204 30.0601 37.2826 29.812C36.6448 29.564 35.9551 29.4789 35.2762 29.5646C34.5972 29.6502 33.9503 29.9038 33.3941 30.3025L33.3477 30.3382L36.7024 35.5559C37.6619 34.7385 38.8571 34.2484 40.1143 34.1569Z" fill="white"/>
<path d="M45.1709 34.3997C45.5429 33.8263 45.7661 33.1693 45.8203 32.4879C45.8745 31.8066 45.7579 31.1225 45.4812 30.4975C45.2045 29.8725 44.7764 29.3264 44.2355 28.9085C43.6946 28.4906 43.0581 28.2142 42.3835 28.1042H42.3229L41.006 34.1713C42.2664 34.2709 43.462 34.7711 44.4178 35.5989L45.1709 34.3997Z" fill="white"/>
<path d="M44.4074 40.0603C44.4071 39.2996 44.1812 38.5561 43.7585 37.9238C43.3357 37.2915 42.735 36.7986 42.0322 36.5076C41.3294 36.2166 40.5562 36.1404 39.8101 36.2887C39.0641 36.437 38.3787 36.8031 37.8407 37.3408C37.393 37.7881 37.0627 38.3389 36.8788 38.9444C36.695 39.55 36.6633 40.1915 36.7867 40.8122C36.9101 41.4329 37.1847 42.0135 37.5861 42.5027C37.9875 42.9919 38.5035 43.3745 39.0881 43.6166C39.6728 43.8588 40.3082 43.9529 40.9379 43.8908C41.5677 43.8287 42.1724 43.6121 42.6985 43.2604C43.2246 42.9087 43.6558 42.4326 43.9539 41.8744C44.2519 41.3162 44.4077 40.6931 44.4074 40.0603Z" fill="white"/>
<path d="M40.5601 24C37.3837 24 34.2786 24.9419 31.6376 26.7066C28.9965 28.4713 26.9381 30.9795 25.7225 33.9141C24.507 36.8487 24.1889 40.0779 24.8086 43.1932C25.4283 46.3086 26.9578 49.1702 29.2039 51.4162C31.4499 53.6623 34.3116 55.1918 37.4269 55.8115C40.5422 56.4312 43.7714 56.1132 46.706 54.8976C49.6406 53.6821 52.1488 51.6236 53.9135 48.9825C55.6782 46.3415 56.6201 43.2364 56.6201 40.0601C56.6154 35.8021 54.9218 31.7199 51.911 28.7091C48.9002 25.6983 44.818 24.0047 40.5601 24ZM51.2097 48.9823C50.0366 50.3843 48.5989 51.5414 46.9786 52.3877C45.3583 53.234 43.5872 53.7528 41.7664 53.9145C41.3702 53.9466 40.9669 53.9681 40.5601 53.9681C40.1532 53.9681 39.7499 53.9466 39.3502 53.9145C36.0925 53.6277 33.0398 52.2029 30.7276 49.8901C28.4154 47.5773 26.9915 44.5242 26.7056 41.2663C26.6735 40.8702 26.6413 40.4669 26.6413 40.0601C26.6413 39.6532 26.6628 39.2499 26.6949 38.8502C26.9821 35.5908 28.4084 32.5367 30.7234 30.2244C33.0384 27.912 36.094 26.4891 39.3538 26.2056C39.7499 26.1735 40.1532 26.1413 40.5601 26.1413C40.9669 26.1413 41.3702 26.1628 41.7699 26.1949C45.0293 26.4821 48.0834 27.9084 50.3957 30.2234C52.7081 32.5384 54.131 35.594 54.4145 38.8538C54.4467 39.2499 54.4681 39.6532 54.4681 40.0601C54.4681 40.4669 54.4467 40.8702 54.4145 41.2699C54.1659 44.1094 53.0466 46.8029 51.2097 48.9823Z" fill="white"/>
<defs>
<linearGradient id="paint0_linear_1_226" x1="0.5" y1="0" x2="95.4192" y2="26.4397" gradientUnits="userSpaceOnUse">
<stop stop-color="#FE5C5C"/>
<stop offset="1" stop-color="#FFBC47"/>
</linearGradient>
</defs>
</svg>
