<svg width="81" height="80" viewBox="0 0 81 80" fill="none" xmlns="http://www.w3.org/2000/svg">
<rect x="0.5" width="80" height="80" rx="40" fill="url(#paint0_linear_1_202)"/>
<path d="M48.9127 32.8185L36.5529 24.3861L24.1931 32.8185L23.5 31.8944L36.5529 23L49.6058 31.8944L48.9127 32.8185Z" fill="white"/>
<path d="M58.4991 38.1323H51.5684V40.4426H58.4991V38.1323Z" fill="white"/>
<path d="M58.4991 34.667H51.5684V36.9772H58.4991V34.667Z" fill="white"/>
<path d="M58.4991 55.459H51.5684V57.7692H58.4991V55.459Z" fill="white"/>
<path d="M58.4991 51.9937H51.5684V54.3039H58.4991V51.9937Z" fill="white"/>
<path d="M58.4991 48.5283H51.5684V50.8386H58.4991V48.5283Z" fill="white"/>
<path d="M50.4151 45.063H43.4844V47.3732H50.4151V45.063Z" fill="white"/>
<path d="M58.4991 45.063H51.5684V47.3732H58.4991V45.063Z" fill="white"/>
<path d="M50.4151 41.5977H43.4844V43.9079H50.4151V41.5977Z" fill="white"/>
<path d="M58.4991 41.5977H51.5684V43.9079H58.4991V41.5977Z" fill="white"/>
<path d="M42.3292 55.459H35.3984V57.7692H42.3292V55.459Z" fill="white"/>
<path d="M43.4844 55.459V57.7692H44.6395H50.4151V55.459H43.4844Z" fill="white"/>
<path d="M50.4151 51.9937H43.4844V54.3039H50.4151V51.9937Z" fill="white"/>
<path d="M42.3292 51.9937H35.3984V54.3039H42.3292V51.9937Z" fill="white"/>
<path d="M42.3292 48.5283H35.3984V50.8386H42.3292V48.5283Z" fill="white"/>
<path d="M50.4151 48.5283H43.4844V50.8386H50.4151V48.5283Z" fill="white"/>
<path d="M36.5524 25.7725L26.1562 32.8765V49.1059C26.1562 50.0878 26.9071 50.8386 27.8889 50.8386H34.2421V46.7957H42.328V40.4425H46.9485V32.8765L36.5524 25.7725ZM40.5953 34.0893V36.3996H37.1299V32.9342H39.4402C40.0755 32.9342 40.5953 33.454 40.5953 34.0893ZM33.6645 32.9342H35.9748V36.3996H32.5094V34.0893C32.5094 33.454 33.0292 32.9342 33.6645 32.9342ZM32.5094 39.865V37.5547H35.9748V41.0201H33.6645C33.0292 41.0201 32.5094 40.5003 32.5094 39.865ZM39.4402 41.0201H37.1299V37.5547H40.5953V39.865C40.5953 40.5003 40.0755 41.0201 39.4402 41.0201Z" fill="white"/>
<defs>
<linearGradient id="paint0_linear_1_202" x1="0.5" y1="0" x2="95.4192" y2="26.4397" gradientUnits="userSpaceOnUse">
<stop stop-color="#FE5C5C"/>
<stop offset="1" stop-color="#FFBC47"/>
</linearGradient>
</defs>
</svg>
