<svg width="81" height="80" viewBox="0 0 81 80" fill="none" xmlns="http://www.w3.org/2000/svg">
<rect x="0.5" width="80" height="80" rx="40" fill="url(#paint0_linear_1_162)"/>
<path d="M30.6847 33.571C30.564 33.571 30.4491 33.5566 30.3429 33.5308L27.6328 38.7412H33.7437L31.0307 33.5308C30.9159 33.5552 30.8024 33.571 30.6847 33.571Z" fill="white"/>
<path d="M49.7275 35.8758C51.4624 35.8758 52.8813 34.6522 53.0149 33.1069H46.4415C46.5693 34.6551 47.9969 35.8758 49.7275 35.8758Z" fill="white"/>
<path d="M40.2066 31.5369C40.0443 31.5369 39.8863 31.5226 39.7326 31.4967V34.6261H40.6805V31.4967C40.5268 31.5182 40.3689 31.5369 40.2066 31.5369Z" fill="white"/>
<path d="M39.7326 44.0751H40.6805V46.0929H39.7326V44.0751Z" fill="white"/>
<path d="M52.7841 32.3572L50.008 27.0261C49.9161 27.0405 49.8285 27.052 49.728 27.052C49.6318 27.052 49.5398 27.0405 49.4479 27.0261L46.6718 32.3572H52.7841Z" fill="white"/>
<path d="M48.3608 26.0999L42.754 27.9784C42.8014 28.099 42.8459 28.2254 42.8747 28.3503L48.5333 26.4575C48.46 26.3498 48.4053 26.2277 48.3608 26.0999Z" fill="white"/>
<path d="M31.9414 31.5912C32.0075 31.7047 32.062 31.8225 32.0922 31.9517L37.7365 30.066C37.6776 29.9483 37.623 29.8305 37.5814 29.7056L31.9414 31.5912Z" fill="white"/>
<path d="M54.2692 24.0001H30.8094C27.8825 24.0001 25.5 25.9633 25.5 28.3789V51.8098C26.2138 50.9825 27.3641 50.4454 28.6581 50.4454H54.2648C54.6109 50.4454 54.9082 50.2243 54.9082 49.9643V24.4782C54.9125 24.2169 54.6154 24.0001 54.2692 24.0001ZM42.945 29.1216C42.8789 30.0594 42.2801 30.8608 41.437 31.2615V34.625H42.5113C43.103 34.625 43.5812 35.1061 43.5812 35.6992V36.3053C43.5812 36.7433 43.317 37.1181 42.9421 37.2833V38.1766H45.0116C45.2242 37.9382 45.5373 37.7831 45.8834 37.7831H51.7586C52.4063 37.7831 52.9319 38.3059 52.9319 38.9521V39.732C52.9319 40.3754 52.4063 40.901 51.7586 40.901H45.8834C45.5373 40.901 45.2285 40.7459 45.0116 40.5075H42.9421V41.4224C43.3213 41.5875 43.5812 41.9624 43.5812 42.4004V43.0108C43.5812 43.6025 43.103 44.085 42.5113 44.085H41.437V46.1029H42.9924C43.8153 46.1029 44.4846 46.7721 44.4846 47.595V49.5884C44.4846 49.7938 44.3151 49.9633 44.1054 49.9633L36.3056 49.9647C36.1002 49.9647 35.9265 49.7952 35.9265 49.5899V47.5965C35.9265 46.7736 36.5986 46.1043 37.4186 46.1043H38.974V44.075H37.8997C37.308 44.075 36.8298 43.5939 36.8298 43.0008V42.3904C36.8298 41.9523 37.094 41.5775 37.4689 41.4123L37.4703 37.2806C37.0912 37.1154 36.8312 36.7406 36.8312 36.3025V35.6965C36.8312 35.1048 37.3095 34.6222 37.9012 34.6222H38.9754V31.2587C38.681 31.1151 38.4168 30.9284 38.1956 30.703L31.9855 32.7796C31.9151 32.9304 31.816 33.0669 31.6954 33.176L33.4532 36.5553C33.4532 36.5596 33.4575 36.5596 33.4575 36.5625L34.6898 38.9336L34.6941 38.9379C34.6984 38.9494 34.7013 38.9594 34.7056 38.9709C34.7128 38.9896 34.7199 39.004 34.7243 39.0226C34.7286 39.0442 34.7314 39.0671 34.7314 39.0887V39.1031C34.7357 39.1102 34.7357 39.1217 34.7357 39.1318V39.2567C34.7357 41.3262 32.919 43.0065 30.6841 43.0065C28.4495 43.0065 26.6285 41.3262 26.6285 39.2567C26.6285 39.2165 26.6285 39.172 26.6328 39.1361V39.0844C26.6328 39.0801 26.6371 39.0801 26.6371 39.0772C26.6414 39.0298 26.6486 38.9781 26.6702 38.9336L26.6745 38.9293L27.9067 36.5582C27.9067 36.5539 27.911 36.5539 27.911 36.551L29.6718 33.1717C29.4075 32.9247 29.2452 32.5872 29.2452 32.2152C29.2452 31.4684 29.8886 30.8695 30.6828 30.8695C30.8997 30.8695 31.1094 30.9169 31.2975 31.0059L37.4602 28.9436V28.9364C37.4602 27.5031 38.6881 26.3413 40.2062 26.3413C41.0708 26.3413 41.842 26.7204 42.3461 27.3121L48.3723 25.3015C48.5562 24.7643 49.0933 24.3708 49.7295 24.3708C50.5194 24.3708 51.1671 24.9697 51.1671 25.705C51.1671 26.0985 50.9833 26.4518 50.6932 26.6945L52.5027 30.1686C52.5027 30.1686 52.5071 30.1686 52.5071 30.1729L53.3888 31.8676L53.7421 32.5484C53.7493 32.5599 53.7493 32.5771 53.7565 32.5886C53.7608 32.6029 53.768 32.6144 53.768 32.6288C53.7752 32.6503 53.7752 32.6762 53.7795 32.6992V32.7394C53.7838 32.7724 53.7838 32.8169 53.7838 32.8643C53.7838 34.9338 51.9671 36.6141 49.7282 36.6141C47.4964 36.6141 45.6766 34.9338 45.6766 32.8643V32.7466C45.6809 32.7279 45.6809 32.7092 45.6809 32.692V32.6848C45.6852 32.6374 45.6952 32.5886 45.7182 32.5455L46.0385 31.9279L46.9533 30.1672C46.9533 30.1629 46.9576 30.1629 46.9576 30.1629L48.4685 27.2546L42.945 29.1216Z" fill="white"/>
<path d="M30.6858 42.2626C32.4178 42.2626 33.8367 41.039 33.9689 39.4937H27.3984C27.5306 41.0375 28.9495 42.2626 30.6858 42.2626Z" fill="white"/>
<path d="M28.6581 51.1952C26.916 51.1952 25.5 52.3499 25.5 53.7731V53.7774V53.7803V53.7846V53.7889C25.5043 54.1709 25.6135 54.5429 25.8088 54.8804C25.8748 54.8215 25.9668 54.777 26.0658 54.777H30.3083C30.5136 54.777 30.6874 54.9465 30.6874 55.1518C30.6874 55.3572 30.5179 55.5267 30.3083 55.5267H26.353C26.3717 55.541 26.386 55.5554 26.4004 55.5712C26.6876 55.8067 27.0179 55.9977 27.3784 56.127C27.7719 56.2706 28.2057 56.3481 28.6609 56.3481H54.2319C54.364 56.3481 54.4416 56.2749 54.4416 56.2304V55.5238L47.2767 55.5223C47.0713 55.5223 46.8975 55.3529 46.8975 55.1475C46.8975 54.9421 47.067 54.7727 47.2767 54.7727H54.4416V52.7692H43.9791C43.7738 52.7692 43.6 52.5998 43.6 52.3944C43.6 52.1847 43.7695 52.0196 43.9791 52.0196H54.4431V51.1852C54.3885 51.1924 54.3253 51.1967 54.2707 51.1967L28.6581 51.1952ZM41.6225 53.9526H33.6072C33.4018 53.9526 33.228 53.7832 33.228 53.5778C33.228 53.3724 33.3975 53.203 33.6072 53.203H41.6181C41.8234 53.203 41.9972 53.3724 41.9972 53.5778C41.9972 53.7846 41.8278 53.9526 41.6225 53.9526Z" fill="white"/>
<path d="M42.9414 38.9233H44.7093V39.7463H42.9414V38.9233Z" fill="white"/>
<path d="M45.8822 40.1396H51.7574C51.9929 40.1396 52.1768 39.9558 52.1768 39.7246V38.9447C52.1768 38.7164 51.9929 38.5254 51.7574 38.5254L45.8822 38.5268C45.651 38.5268 45.4629 38.715 45.4629 38.9462V39.726C45.4629 39.9558 45.6496 40.1396 45.8822 40.1396Z" fill="white"/>
<path d="M40.2063 27.0996C39.1105 27.0996 38.2129 27.9268 38.2129 28.9422C38.2129 29.9576 39.1062 30.7805 40.2063 30.7805C41.305 30.7805 42.1997 29.9576 42.1997 28.9422C42.1997 27.9268 41.3021 27.0996 40.2063 27.0996Z" fill="white"/>
<path d="M49.7276 26.2983C50.1068 26.2983 50.4113 26.0341 50.4113 25.7095C50.4113 25.3892 50.1068 25.125 49.7276 25.125C49.3528 25.125 49.0469 25.3893 49.0469 25.7095C49.0483 26.0369 49.3528 26.2983 49.7276 26.2983Z" fill="white"/>
<path d="M30.6836 32.8195C31.0585 32.8195 31.3644 32.5509 31.3644 32.2235C31.3644 31.896 31.0599 31.6274 30.6836 31.6274C30.3045 31.6274 30 31.896 30 32.2235C30.0029 32.5523 30.3073 32.8195 30.6836 32.8195Z" fill="white"/>
<path d="M38.2285 37.3752H42.1881V41.3232H38.2285V37.3752Z" fill="white"/>
<path d="M37.5842 35.695V36.3011C37.5842 36.4777 37.7278 36.6213 37.9002 36.6213H42.5073C42.6796 36.6213 42.8233 36.4777 42.8233 36.3011V35.695C42.8233 35.5184 42.6797 35.3748 42.5073 35.3748L37.9002 35.3762C37.7278 35.3762 37.5842 35.5184 37.5842 35.695Z" fill="white"/>
<path d="M42.512 42.0786H37.9019C37.7296 42.0786 37.5859 42.2222 37.5859 42.3946V43.005C37.5859 43.1816 37.7296 43.3252 37.9019 43.3252H42.509C42.6814 43.3252 42.825 43.1816 42.825 43.005V42.3946C42.8278 42.2208 42.6843 42.0786 42.512 42.0786Z" fill="white"/>
<path d="M36.6855 48.4604H43.7299V49.2072H36.6855V48.4604Z" fill="white"/>
<path d="M36.6857 47.5892V47.7098H43.7301V47.5892C43.7301 47.177 43.3997 46.8467 42.9904 46.8467H37.4237C37.0158 46.8467 36.6857 47.177 36.6857 47.5892Z" fill="white"/>
<defs>
<linearGradient id="paint0_linear_1_162" x1="0.5" y1="0" x2="95.4192" y2="26.4397" gradientUnits="userSpaceOnUse">
<stop stop-color="#FE5C5C"/>
<stop offset="1" stop-color="#FFBC47"/>
</linearGradient>
</defs>
</svg>
