<svg width="32" height="32" viewBox="0 0 32 32" fill="none" xmlns="http://www.w3.org/2000/svg">
<rect width="32" height="32" rx="16" fill="#FFBC47"/>
<path fill-rule="evenodd" clip-rule="evenodd" d="M19 19.8571V12.3203C19 11.8634 19.12 11.3954 19.318 11.0997C19.3563 11.0396 19.4062 10.9878 19.4648 10.9472C19.5234 10.9066 19.5895 10.8781 19.6592 10.8634C19.729 10.8487 19.801 10.8481 19.8709 10.8615C19.9409 10.875 20.0075 10.9023 20.0668 10.9418C20.1261 10.9813 20.177 11.0323 20.2163 11.0917C20.2557 11.1511 20.2828 11.2178 20.2961 11.2878C20.3094 11.3578 20.3086 11.4298 20.2937 11.4995C20.2788 11.5692 20.2502 11.6352 20.2094 11.6937C20.1693 11.7641 20.1398 11.8401 20.122 11.9191C20.092 12.0366 20.0714 12.1763 20.0714 12.3203V13.4286H21.1429C21.3702 13.4286 21.5882 13.3383 21.7489 13.1775C21.9097 13.0168 22 12.7988 22 12.5714V11.9286C22 11.4171 21.7968 10.9265 21.4351 10.5649C21.0735 10.2032 20.5829 10 20.0714 10H13.8571C13.2888 10 12.7438 10.2258 12.3419 10.6276C11.9401 11.0295 11.7143 11.5745 11.7143 12.1429V19.8571C11.7143 20.1981 11.5788 20.5252 11.3377 20.7663C11.0966 21.0074 10.7696 21.1429 10.4286 21.1429C10.3149 21.1429 10.2059 21.188 10.1255 21.2684C10.0452 21.3488 10 21.4578 10 21.5714C10 21.6851 10.0452 21.7941 10.1255 21.8745C10.2059 21.9548 10.3149 22 10.4286 22H16.8571C17.4255 22 17.9705 21.7742 18.3724 21.3724C18.7742 20.9705 19 20.4255 19 19.8571ZM14.4374 13C14.4374 12.7043 14.6774 12.4643 14.9731 12.4643H16.6343C16.7764 12.4643 16.9126 12.5207 17.0131 12.6212C17.1136 12.7217 17.17 12.8579 17.17 13C17.17 13.1421 17.1136 13.2783 17.0131 13.3788C16.9126 13.4793 16.7764 13.5357 16.6343 13.5357H14.9731C14.8311 13.5357 14.6948 13.4793 14.5943 13.3788C14.4939 13.2783 14.4374 13.1421 14.4374 13ZM13.8666 15.0357C13.7245 15.0357 13.5882 15.0922 13.4878 15.1926C13.3873 15.2931 13.3309 15.4293 13.3309 15.5714C13.3309 15.7135 13.3873 15.8498 13.4878 15.9502C13.5882 16.0507 13.7245 16.1071 13.8666 16.1071H16.6343C16.7764 16.1071 16.9126 16.0507 17.0131 15.9502C17.1136 15.8498 17.17 15.7135 17.17 15.5714C17.17 15.4293 17.1136 15.2931 17.0131 15.1926C16.9126 15.0922 16.7764 15.0357 16.6343 15.0357H13.8666ZM13.33 18.1429C13.33 17.8471 13.57 17.6071 13.8666 17.6071H16.6343C16.7046 17.6071 16.7743 17.621 16.8393 17.6479C16.9043 17.6748 16.9633 17.7143 17.0131 17.764C17.0628 17.8138 17.1023 17.8729 17.1292 17.9378C17.1561 18.0028 17.17 18.0725 17.17 18.1429C17.17 18.2132 17.1561 18.2829 17.1292 18.3479C17.1023 18.4129 17.0628 18.4719 17.0131 18.5217C16.9633 18.5714 16.9043 18.6109 16.8393 18.6378C16.7743 18.6647 16.7046 18.6786 16.6343 18.6786H13.8657C13.7238 18.6783 13.5877 18.6218 13.4875 18.5214C13.3872 18.4209 13.33 18.2848 13.33 18.1429Z" fill="white"/>
</svg>
