<svg width="16" height="16" viewBox="0 0 16 16" fill="none" xmlns="http://www.w3.org/2000/svg">
<path d="M14.6666 10.9167C13.6629 10.9167 12.6652 10.7621 11.7085 10.4585C11.4167 10.3751 11.0835 10.4166 10.8752 10.6668L9.04164 12.5C6.66656 11.2918 4.75008 9.37496 3.54156 6.99984L5.37512 5.16676C5.5834 4.95844 5.6666 4.6252 5.5834 4.33344C5.24992 3.3752 5.08332 2.375 5.08332 1.33332C5.08332 0.875156 4.70836 0.5 4.25 0.5H1.33332C0.874961 0.5 0.5 0.875156 0.5 1.33332C0.5 9.16656 6.83344 15.5 14.6666 15.5C15.1248 15.5 15.5 15.1248 15.5 14.6667V11.75C15.5 11.2918 15.1248 10.9167 14.6666 10.9167Z" fill="#2E3742"/>
</svg>
