<svg width="48" height="48" viewBox="0 0 48 48" fill="none" xmlns="http://www.w3.org/2000/svg">
<rect width="48" height="48" rx="24" fill="#FE5C5C"/>
<path d="M31.7626 19.1538C31.1795 19.4118 30.561 19.5812 29.9278 19.6564C30.5952 19.2572 31.0948 18.629 31.3333 17.8888C30.7069 18.2616 30.0202 18.5228 29.3044 18.6641C28.8237 18.1497 28.1864 17.8086 27.4917 17.6937C26.797 17.5788 26.0838 17.6967 25.463 18.0289C24.8423 18.3612 24.3486 18.8892 24.0589 19.531C23.7692 20.1727 23.6996 20.8922 23.861 21.5776C22.5907 21.5139 21.348 21.1838 20.2136 20.6087C19.0792 20.0336 18.0784 19.2264 17.2762 18.2394C16.9923 18.7271 16.8431 19.2815 16.8439 19.8459C16.8439 20.9535 17.4076 21.9321 18.2647 22.505C17.7575 22.489 17.2615 22.352 16.8179 22.1055V22.1452C16.8181 22.8829 17.0733 23.5978 17.5404 24.1688C18.0075 24.7397 18.6577 25.1316 19.3808 25.2779C18.9099 25.4055 18.4162 25.4243 17.937 25.3329C18.1409 25.9679 18.5382 26.5232 19.0734 26.9211C19.6085 27.319 20.2547 27.5396 20.9215 27.552C20.2588 28.0724 19.5001 28.4572 18.6886 28.6842C17.8771 28.9112 17.0288 28.9761 16.1923 28.875C17.6526 29.8142 19.3526 30.3128 21.0888 30.3111C26.9654 30.3111 30.1791 25.4429 30.1791 21.2209C30.1791 21.0834 30.1753 20.9443 30.1692 20.8084C30.7947 20.3563 31.3346 19.7962 31.7634 19.1546L31.7626 19.1538Z" fill="white"/>
</svg>
