<svg width="81" height="80" viewBox="0 0 81 80" fill="none" xmlns="http://www.w3.org/2000/svg">
<rect x="0.5" width="80" height="80" rx="40" fill="url(#paint0_linear_1_188)"/>
<path d="M59.5 47.8692H22.5V49.3893H59.5V47.8692ZM49.3619 39.8887H53.024L51.7268 38.3386H48.5237L49.3619 39.8887ZM45.2408 39.8887H48.4639L47.6357 38.3386H44.9515L45.2408 39.8887ZM41.3991 39.8887H44.4326L44.1432 38.3386H41.4091V39.8887H41.3991ZM37.5774 39.8887H40.6009V38.3386H37.8668L37.5774 39.8887ZM33.5461 39.8887H36.7592L37.0485 38.3386H34.3643L33.5461 39.8887ZM28.976 39.8887H32.6481L33.4763 38.3386H30.2832L28.976 39.8887ZM36.0208 43.819H31.4407L29.7044 47.0792H35.4121L36.0208 43.819ZM40.6009 43.819H36.839L36.2203 47.0792H40.6009V43.819ZM45.171 43.819H41.3991V47.0792H45.7797L45.171 43.819ZM50.5593 43.819H45.9792L46.5979 47.0792H52.3056L50.5593 43.819ZM56.2969 43.799C56.257 43.809 56.2171 43.819 56.1772 43.819H51.4574L53.1936 47.0792H59.041L56.2969 43.799ZM51.0283 43.0189H55.6483L53.6926 40.6888H49.781L51.0283 43.0189ZM45.8296 43.0189H50.1303L48.883 40.6888H45.3905L45.8296 43.0189ZM41.3991 43.0189H45.0213L44.5823 40.6888H41.3991V43.0189ZM36.9887 43.0189H40.6009V40.6888H37.4277L36.9887 43.0189ZM31.8797 43.0189H36.1804L36.6195 40.6888H33.127L31.8797 43.0189ZM26.3517 43.0189H30.9717L32.219 40.6888H28.3074L26.3517 43.0189ZM25.8228 43.819C25.7829 43.819 25.733 43.809 25.7031 43.799L22.949 47.0792H28.7964L30.5426 43.819H25.8228ZM39.3037 55.9697H42.6864V50.1994H39.3037V55.9697ZM34.524 60H47.486C48.8929 60 49.6413 58.2699 48.6235 57.2498C48.3341 56.9598 47.925 56.7698 47.486 56.7698H34.524C33.1071 56.7698 32.3587 58.4999 33.3865 59.52C33.6758 59.81 34.075 60 34.524 60ZM43.8838 25.4278C42.2872 23.8277 39.7028 23.8277 38.1162 25.4278C36.5197 27.0279 36.5197 29.6181 38.1162 31.2182C39.7128 32.8183 42.2972 32.8183 43.8838 31.2182C45.4803 29.6181 45.4803 27.0279 43.8838 25.4278ZM44.6122 21.2576C44.8716 20.8076 45.5601 21.2076 45.3007 21.6576L44.5823 22.9177C44.3228 23.3677 43.6243 22.9677 43.8937 22.5177L44.6122 21.2576ZM47.6556 24.0078C48.1046 23.7477 48.5038 24.4378 48.0547 24.6978L46.7975 25.4278C46.3484 25.6879 45.9493 24.9978 46.3983 24.7378L47.6556 24.0078ZM48.9129 27.918C49.4417 27.918 49.4417 28.718 48.9129 28.718H47.466C46.9372 28.718 46.9372 27.918 47.466 27.918H48.9129ZM33.0871 28.718C32.5682 28.718 32.5682 27.918 33.0871 27.918H34.534C35.0529 27.918 35.0529 28.718 34.534 28.718H33.0871ZM33.9453 24.6978C33.4962 24.4378 33.8954 23.7477 34.3444 24.0078L35.5917 24.7378C36.0507 24.9978 35.6516 25.6979 35.1926 25.4278L33.9453 24.6978ZM36.6993 21.6576C36.4399 21.2076 37.1284 20.8076 37.3878 21.2576L38.1063 22.5177C38.3657 22.9677 37.6772 23.3677 37.4177 22.9177L36.6993 21.6576ZM48.0547 31.9382C48.5038 32.1983 48.1046 32.8983 47.6556 32.6283L46.3983 31.8982C45.9493 31.6382 46.3484 30.9482 46.7975 31.2082L48.0547 31.9382ZM45.3007 34.9884C45.5601 35.4485 44.8716 35.8485 44.6122 35.3885L43.8838 34.1384C43.6243 33.6784 44.3128 33.2783 44.5723 33.7384L45.3007 34.9884ZM41.3991 36.2485C41.3991 36.7685 40.6009 36.7685 40.6009 36.2485V34.7984C40.6009 34.2784 41.3991 34.2784 41.3991 34.7984V36.2485ZM37.3878 35.3885C37.1284 35.8485 36.4299 35.4485 36.6993 34.9884L37.4277 33.7384C37.6872 33.2783 38.3757 33.6784 38.1162 34.1384L37.3878 35.3885ZM34.3544 32.6283C33.8954 32.8883 33.4962 32.1983 33.9552 31.9382L35.2125 31.2182C35.6715 30.9582 36.0707 31.6482 35.6117 31.9082L34.3544 32.6283ZM40.6009 20.3975C40.6009 19.8675 41.3991 19.8675 41.3991 20.3975V21.8476C41.3991 22.3776 40.6009 22.3776 40.6009 21.8476V20.3975Z" fill="white"/>
<defs>
<linearGradient id="paint0_linear_1_188" x1="0.5" y1="0" x2="95.4192" y2="26.4397" gradientUnits="userSpaceOnUse">
<stop stop-color="#FE5C5C"/>
<stop offset="1" stop-color="#FFBC47"/>
</linearGradient>
</defs>
</svg>
