<svg width="32" height="32" viewBox="0 0 32 32" fill="none" xmlns="http://www.w3.org/2000/svg">
<rect width="32" height="32" rx="16" fill="#FFBC47"/>
<path fill-rule="evenodd" clip-rule="evenodd" d="M22 16C22 19.3138 19.3138 22 16 22C12.6862 22 10 19.3138 10 16C10 12.6862 12.6862 10 16 10C19.3138 10 22 12.6862 22 16ZM18.418 14.182C18.5023 14.2664 18.5496 14.3807 18.5496 14.5C18.5496 14.6193 18.5023 14.7336 18.418 14.818L15.418 17.818C15.3336 17.9023 15.2193 17.9496 15.1 17.9496C14.9807 17.9496 14.8664 17.9023 14.782 17.818L13.582 16.618C13.5378 16.5768 13.5023 16.5271 13.4777 16.4719C13.4531 16.4167 13.4399 16.3571 13.4388 16.2967C13.4378 16.2363 13.4489 16.1763 13.4715 16.1202C13.4942 16.0642 13.5278 16.0133 13.5706 15.9706C13.6133 15.9278 13.6642 15.8942 13.7202 15.8715C13.7763 15.8489 13.8363 15.8378 13.8967 15.8388C13.9571 15.8399 14.0167 15.8531 14.0719 15.8777C14.1271 15.9023 14.1768 15.9378 14.218 15.982L15.1 16.864L16.441 15.523L17.782 14.182C17.8664 14.0977 17.9808 14.0504 18.1 14.0504C18.2193 14.0504 18.3336 14.0977 18.418 14.182Z" fill="white"/>
</svg>
