<svg width="14" height="14" viewBox="0 0 14 14" fill="none" xmlns="http://www.w3.org/2000/svg">
<path d="M7.0013 0.125C6.1725 0.125 5.37765 0.45424 4.79159 1.04029C4.20554 1.62634 3.8763 2.4212 3.8763 3.25C3.8763 4.0788 4.20554 4.87366 4.79159 5.45971C5.37765 6.04576 6.1725 6.375 7.0013 6.375C7.8301 6.375 8.62496 6.04576 9.21101 5.45971C9.79706 4.87366 10.1263 4.0788 10.1263 3.25C10.1263 2.4212 9.79706 1.62634 9.21101 1.04029C8.62496 0.45424 7.8301 0.125 7.0013 0.125ZM3.66797 8.04167C2.83917 8.04167 2.04431 8.37091 1.45826 8.95696C0.872209 9.54301 0.542969 10.3379 0.542969 11.1667V12.1567C0.542969 12.785 0.997969 13.32 1.61797 13.4208C5.18297 14.0033 8.81964 14.0033 12.3846 13.4208C12.6847 13.372 12.9576 13.218 13.1545 12.9864C13.3515 12.7548 13.4596 12.4607 13.4596 12.1567V11.1667C13.4596 10.3379 13.1304 9.54301 12.5443 8.95696C11.9583 8.37091 11.1634 8.04167 10.3346 8.04167H10.0513C9.89714 8.04167 9.7438 8.06667 9.59797 8.11333L8.8763 8.34917C7.65793 8.74686 6.34467 8.74686 5.1263 8.34917L4.40464 8.11333C4.25851 8.06578 4.1058 8.04159 3.95214 8.04167H3.66797Z" fill="#2E3742"/>
</svg>
